<mxfile host="app.diagrams.net" modified="2022-07-25T21:54:17.131Z" agent="5.0 (X11)" etag="dv5Cb2_IePkX2yJxv8Bd" version="20.2.0" type="github">
  <diagram id="prtHgNgQTEPvFCAcTncT" name="Page-1">
    <mxGraphModel dx="1422" dy="718" grid="1" gridSize="10" guides="1" tooltips="1" connect="1" arrows="1" fold="1" page="1" pageScale="1" pageWidth="827" pageHeight="1169" math="0" shadow="0">
      <root>
        <mxCell id="0" />
        <mxCell id="1" parent="0" />
        <mxCell id="YOguvEMQ_99iYduZ2-tK-5" value="" style="shape=table;html=1;whiteSpace=wrap;startSize=0;container=1;collapsible=0;childLayout=tableLayout;columnLines=0;rowLines=0;fillColor=#dae8fc;strokeColor=#6c8ebf;" vertex="1" parent="1">
          <mxGeometry x="80" y="80" width="400" height="360" as="geometry" />
        </mxCell>
        <mxCell id="YOguvEMQ_99iYduZ2-tK-6" value="" style="shape=tableRow;horizontal=0;startSize=0;swimlaneHead=0;swimlaneBody=0;top=0;left=0;bottom=0;right=0;collapsible=0;dropTarget=0;fillColor=none;points=[[0,0.5],[1,0.5]];portConstraint=eastwest;" vertex="1" parent="YOguvEMQ_99iYduZ2-tK-5">
          <mxGeometry width="400" height="51" as="geometry" />
        </mxCell>
        <mxCell id="YOguvEMQ_99iYduZ2-tK-7" value="Message-feature (1,1)" style="shape=partialRectangle;html=1;whiteSpace=wrap;connectable=0;fillColor=none;top=0;left=0;bottom=0;right=0;overflow=hidden;fontSize=10;" vertex="1" parent="YOguvEMQ_99iYduZ2-tK-6">
          <mxGeometry width="66" height="51" as="geometry">
            <mxRectangle width="66" height="51" as="alternateBounds" />
          </mxGeometry>
        </mxCell>
        <mxCell id="YOguvEMQ_99iYduZ2-tK-8" value="Message-feature (1,2)" style="shape=partialRectangle;html=1;whiteSpace=wrap;connectable=0;fillColor=none;top=0;left=0;bottom=0;right=0;overflow=hidden;fontSize=10;" vertex="1" parent="YOguvEMQ_99iYduZ2-tK-6">
          <mxGeometry x="66" width="68" height="51" as="geometry">
            <mxRectangle width="68" height="51" as="alternateBounds" />
          </mxGeometry>
        </mxCell>
        <mxCell id="YOguvEMQ_99iYduZ2-tK-9" value="..." style="shape=partialRectangle;html=1;whiteSpace=wrap;connectable=0;fillColor=none;top=0;left=0;bottom=0;right=0;overflow=hidden;fontSize=12;" vertex="1" parent="YOguvEMQ_99iYduZ2-tK-6">
          <mxGeometry x="134" width="67" height="51" as="geometry">
            <mxRectangle width="67" height="51" as="alternateBounds" />
          </mxGeometry>
        </mxCell>
        <mxCell id="YOguvEMQ_99iYduZ2-tK-18" value="..." style="shape=partialRectangle;html=1;whiteSpace=wrap;connectable=0;fillColor=none;top=0;left=0;bottom=0;right=0;overflow=hidden;fontSize=12;" vertex="1" parent="YOguvEMQ_99iYduZ2-tK-6">
          <mxGeometry x="201" width="66" height="51" as="geometry">
            <mxRectangle width="66" height="51" as="alternateBounds" />
          </mxGeometry>
        </mxCell>
        <mxCell id="YOguvEMQ_99iYduZ2-tK-21" value="..." style="shape=partialRectangle;html=1;whiteSpace=wrap;connectable=0;fillColor=none;top=0;left=0;bottom=0;right=0;overflow=hidden;fontSize=12;" vertex="1" parent="YOguvEMQ_99iYduZ2-tK-6">
          <mxGeometry x="267" width="67" height="51" as="geometry">
            <mxRectangle width="67" height="51" as="alternateBounds" />
          </mxGeometry>
        </mxCell>
        <mxCell id="YOguvEMQ_99iYduZ2-tK-24" value="Message-feature (1,P)" style="shape=partialRectangle;html=1;whiteSpace=wrap;connectable=0;fillColor=none;top=0;left=0;bottom=0;right=0;overflow=hidden;fontSize=10;" vertex="1" parent="YOguvEMQ_99iYduZ2-tK-6">
          <mxGeometry x="334" width="66" height="51" as="geometry">
            <mxRectangle width="66" height="51" as="alternateBounds" />
          </mxGeometry>
        </mxCell>
        <mxCell id="YOguvEMQ_99iYduZ2-tK-10" value="" style="shape=tableRow;horizontal=0;startSize=0;swimlaneHead=0;swimlaneBody=0;top=0;left=0;bottom=0;right=0;collapsible=0;dropTarget=0;fillColor=none;points=[[0,0.5],[1,0.5]];portConstraint=eastwest;" vertex="1" parent="YOguvEMQ_99iYduZ2-tK-5">
          <mxGeometry y="51" width="400" height="53" as="geometry" />
        </mxCell>
        <mxCell id="YOguvEMQ_99iYduZ2-tK-11" value="Message-feature (2, 1)" style="shape=partialRectangle;html=1;whiteSpace=wrap;connectable=0;fillColor=none;top=0;left=0;bottom=0;right=0;overflow=hidden;fontSize=10;" vertex="1" parent="YOguvEMQ_99iYduZ2-tK-10">
          <mxGeometry width="66" height="53" as="geometry">
            <mxRectangle width="66" height="53" as="alternateBounds" />
          </mxGeometry>
        </mxCell>
        <mxCell id="YOguvEMQ_99iYduZ2-tK-12" value="..." style="shape=partialRectangle;html=1;whiteSpace=wrap;connectable=0;fillColor=none;top=0;left=0;bottom=0;right=0;overflow=hidden;fontSize=12;" vertex="1" parent="YOguvEMQ_99iYduZ2-tK-10">
          <mxGeometry x="66" width="68" height="53" as="geometry">
            <mxRectangle width="68" height="53" as="alternateBounds" />
          </mxGeometry>
        </mxCell>
        <mxCell id="YOguvEMQ_99iYduZ2-tK-13" value="" style="shape=partialRectangle;html=1;whiteSpace=wrap;connectable=0;fillColor=none;top=0;left=0;bottom=0;right=0;overflow=hidden;fontSize=12;" vertex="1" parent="YOguvEMQ_99iYduZ2-tK-10">
          <mxGeometry x="134" width="67" height="53" as="geometry">
            <mxRectangle width="67" height="53" as="alternateBounds" />
          </mxGeometry>
        </mxCell>
        <mxCell id="YOguvEMQ_99iYduZ2-tK-19" value="" style="shape=partialRectangle;html=1;whiteSpace=wrap;connectable=0;fillColor=none;top=0;left=0;bottom=0;right=0;overflow=hidden;fontSize=12;" vertex="1" parent="YOguvEMQ_99iYduZ2-tK-10">
          <mxGeometry x="201" width="66" height="53" as="geometry">
            <mxRectangle width="66" height="53" as="alternateBounds" />
          </mxGeometry>
        </mxCell>
        <mxCell id="YOguvEMQ_99iYduZ2-tK-22" value="" style="shape=partialRectangle;html=1;whiteSpace=wrap;connectable=0;fillColor=none;top=0;left=0;bottom=0;right=0;overflow=hidden;fontSize=12;" vertex="1" parent="YOguvEMQ_99iYduZ2-tK-10">
          <mxGeometry x="267" width="67" height="53" as="geometry">
            <mxRectangle width="67" height="53" as="alternateBounds" />
          </mxGeometry>
        </mxCell>
        <mxCell id="YOguvEMQ_99iYduZ2-tK-25" value="..." style="shape=partialRectangle;html=1;whiteSpace=wrap;connectable=0;fillColor=none;top=0;left=0;bottom=0;right=0;overflow=hidden;fontSize=12;" vertex="1" parent="YOguvEMQ_99iYduZ2-tK-10">
          <mxGeometry x="334" width="66" height="53" as="geometry">
            <mxRectangle width="66" height="53" as="alternateBounds" />
          </mxGeometry>
        </mxCell>
        <mxCell id="YOguvEMQ_99iYduZ2-tK-14" value="" style="shape=tableRow;horizontal=0;startSize=0;swimlaneHead=0;swimlaneBody=0;top=0;left=0;bottom=0;right=0;collapsible=0;dropTarget=0;fillColor=none;points=[[0,0.5],[1,0.5]];portConstraint=eastwest;" vertex="1" parent="YOguvEMQ_99iYduZ2-tK-5">
          <mxGeometry y="104" width="400" height="51" as="geometry" />
        </mxCell>
        <mxCell id="YOguvEMQ_99iYduZ2-tK-15" value="..." style="shape=partialRectangle;html=1;whiteSpace=wrap;connectable=0;fillColor=none;top=0;left=0;bottom=0;right=0;overflow=hidden;fontSize=12;" vertex="1" parent="YOguvEMQ_99iYduZ2-tK-14">
          <mxGeometry width="66" height="51" as="geometry">
            <mxRectangle width="66" height="51" as="alternateBounds" />
          </mxGeometry>
        </mxCell>
        <mxCell id="YOguvEMQ_99iYduZ2-tK-16" value="" style="shape=partialRectangle;html=1;whiteSpace=wrap;connectable=0;fillColor=none;top=0;left=0;bottom=0;right=0;overflow=hidden;fontSize=12;" vertex="1" parent="YOguvEMQ_99iYduZ2-tK-14">
          <mxGeometry x="66" width="68" height="51" as="geometry">
            <mxRectangle width="68" height="51" as="alternateBounds" />
          </mxGeometry>
        </mxCell>
        <mxCell id="YOguvEMQ_99iYduZ2-tK-17" value="..." style="shape=partialRectangle;html=1;whiteSpace=wrap;connectable=0;fillColor=none;top=0;left=0;bottom=0;right=0;overflow=hidden;fontSize=12;" vertex="1" parent="YOguvEMQ_99iYduZ2-tK-14">
          <mxGeometry x="134" width="67" height="51" as="geometry">
            <mxRectangle width="67" height="51" as="alternateBounds" />
          </mxGeometry>
        </mxCell>
        <mxCell id="YOguvEMQ_99iYduZ2-tK-20" style="shape=partialRectangle;html=1;whiteSpace=wrap;connectable=0;fillColor=none;top=0;left=0;bottom=0;right=0;overflow=hidden;fontSize=12;" vertex="1" parent="YOguvEMQ_99iYduZ2-tK-14">
          <mxGeometry x="201" width="66" height="51" as="geometry">
            <mxRectangle width="66" height="51" as="alternateBounds" />
          </mxGeometry>
        </mxCell>
        <mxCell id="YOguvEMQ_99iYduZ2-tK-23" style="shape=partialRectangle;html=1;whiteSpace=wrap;connectable=0;fillColor=none;top=0;left=0;bottom=0;right=0;overflow=hidden;fontSize=12;" vertex="1" parent="YOguvEMQ_99iYduZ2-tK-14">
          <mxGeometry x="267" width="67" height="51" as="geometry">
            <mxRectangle width="67" height="51" as="alternateBounds" />
          </mxGeometry>
        </mxCell>
        <mxCell id="YOguvEMQ_99iYduZ2-tK-26" value="..." style="shape=partialRectangle;html=1;whiteSpace=wrap;connectable=0;fillColor=none;top=0;left=0;bottom=0;right=0;overflow=hidden;fontSize=12;" vertex="1" parent="YOguvEMQ_99iYduZ2-tK-14">
          <mxGeometry x="334" width="66" height="51" as="geometry">
            <mxRectangle width="66" height="51" as="alternateBounds" />
          </mxGeometry>
        </mxCell>
        <mxCell id="YOguvEMQ_99iYduZ2-tK-27" style="shape=tableRow;horizontal=0;startSize=0;swimlaneHead=0;swimlaneBody=0;top=0;left=0;bottom=0;right=0;collapsible=0;dropTarget=0;fillColor=none;points=[[0,0.5],[1,0.5]];portConstraint=eastwest;" vertex="1" parent="YOguvEMQ_99iYduZ2-tK-5">
          <mxGeometry y="155" width="400" height="51" as="geometry" />
        </mxCell>
        <mxCell id="YOguvEMQ_99iYduZ2-tK-28" value="..." style="shape=partialRectangle;html=1;whiteSpace=wrap;connectable=0;fillColor=none;top=0;left=0;bottom=0;right=0;overflow=hidden;fontSize=12;" vertex="1" parent="YOguvEMQ_99iYduZ2-tK-27">
          <mxGeometry width="66" height="51" as="geometry">
            <mxRectangle width="66" height="51" as="alternateBounds" />
          </mxGeometry>
        </mxCell>
        <mxCell id="YOguvEMQ_99iYduZ2-tK-29" style="shape=partialRectangle;html=1;whiteSpace=wrap;connectable=0;fillColor=none;top=0;left=0;bottom=0;right=0;overflow=hidden;fontSize=12;" vertex="1" parent="YOguvEMQ_99iYduZ2-tK-27">
          <mxGeometry x="66" width="68" height="51" as="geometry">
            <mxRectangle width="68" height="51" as="alternateBounds" />
          </mxGeometry>
        </mxCell>
        <mxCell id="YOguvEMQ_99iYduZ2-tK-30" style="shape=partialRectangle;html=1;whiteSpace=wrap;connectable=0;fillColor=none;top=0;left=0;bottom=0;right=0;overflow=hidden;fontSize=12;" vertex="1" parent="YOguvEMQ_99iYduZ2-tK-27">
          <mxGeometry x="134" width="67" height="51" as="geometry">
            <mxRectangle width="67" height="51" as="alternateBounds" />
          </mxGeometry>
        </mxCell>
        <mxCell id="YOguvEMQ_99iYduZ2-tK-31" value="..." style="shape=partialRectangle;html=1;whiteSpace=wrap;connectable=0;fillColor=none;top=0;left=0;bottom=0;right=0;overflow=hidden;fontSize=12;" vertex="1" parent="YOguvEMQ_99iYduZ2-tK-27">
          <mxGeometry x="201" width="66" height="51" as="geometry">
            <mxRectangle width="66" height="51" as="alternateBounds" />
          </mxGeometry>
        </mxCell>
        <mxCell id="YOguvEMQ_99iYduZ2-tK-32" style="shape=partialRectangle;html=1;whiteSpace=wrap;connectable=0;fillColor=none;top=0;left=0;bottom=0;right=0;overflow=hidden;fontSize=12;" vertex="1" parent="YOguvEMQ_99iYduZ2-tK-27">
          <mxGeometry x="267" width="67" height="51" as="geometry">
            <mxRectangle width="67" height="51" as="alternateBounds" />
          </mxGeometry>
        </mxCell>
        <mxCell id="YOguvEMQ_99iYduZ2-tK-33" value="..." style="shape=partialRectangle;html=1;whiteSpace=wrap;connectable=0;fillColor=none;top=0;left=0;bottom=0;right=0;overflow=hidden;fontSize=12;" vertex="1" parent="YOguvEMQ_99iYduZ2-tK-27">
          <mxGeometry x="334" width="66" height="51" as="geometry">
            <mxRectangle width="66" height="51" as="alternateBounds" />
          </mxGeometry>
        </mxCell>
        <mxCell id="YOguvEMQ_99iYduZ2-tK-34" style="shape=tableRow;horizontal=0;startSize=0;swimlaneHead=0;swimlaneBody=0;top=0;left=0;bottom=0;right=0;collapsible=0;dropTarget=0;fillColor=none;points=[[0,0.5],[1,0.5]];portConstraint=eastwest;" vertex="1" parent="YOguvEMQ_99iYduZ2-tK-5">
          <mxGeometry y="206" width="400" height="51" as="geometry" />
        </mxCell>
        <mxCell id="YOguvEMQ_99iYduZ2-tK-35" value="..." style="shape=partialRectangle;html=1;whiteSpace=wrap;connectable=0;fillColor=none;top=0;left=0;bottom=0;right=0;overflow=hidden;fontSize=12;" vertex="1" parent="YOguvEMQ_99iYduZ2-tK-34">
          <mxGeometry width="66" height="51" as="geometry">
            <mxRectangle width="66" height="51" as="alternateBounds" />
          </mxGeometry>
        </mxCell>
        <mxCell id="YOguvEMQ_99iYduZ2-tK-36" style="shape=partialRectangle;html=1;whiteSpace=wrap;connectable=0;fillColor=none;top=0;left=0;bottom=0;right=0;overflow=hidden;fontSize=12;" vertex="1" parent="YOguvEMQ_99iYduZ2-tK-34">
          <mxGeometry x="66" width="68" height="51" as="geometry">
            <mxRectangle width="68" height="51" as="alternateBounds" />
          </mxGeometry>
        </mxCell>
        <mxCell id="YOguvEMQ_99iYduZ2-tK-37" style="shape=partialRectangle;html=1;whiteSpace=wrap;connectable=0;fillColor=none;top=0;left=0;bottom=0;right=0;overflow=hidden;fontSize=12;" vertex="1" parent="YOguvEMQ_99iYduZ2-tK-34">
          <mxGeometry x="134" width="67" height="51" as="geometry">
            <mxRectangle width="67" height="51" as="alternateBounds" />
          </mxGeometry>
        </mxCell>
        <mxCell id="YOguvEMQ_99iYduZ2-tK-38" style="shape=partialRectangle;html=1;whiteSpace=wrap;connectable=0;fillColor=none;top=0;left=0;bottom=0;right=0;overflow=hidden;fontSize=12;" vertex="1" parent="YOguvEMQ_99iYduZ2-tK-34">
          <mxGeometry x="201" width="66" height="51" as="geometry">
            <mxRectangle width="66" height="51" as="alternateBounds" />
          </mxGeometry>
        </mxCell>
        <mxCell id="YOguvEMQ_99iYduZ2-tK-39" value="..." style="shape=partialRectangle;html=1;whiteSpace=wrap;connectable=0;fillColor=none;top=0;left=0;bottom=0;right=0;overflow=hidden;fontSize=12;" vertex="1" parent="YOguvEMQ_99iYduZ2-tK-34">
          <mxGeometry x="267" width="67" height="51" as="geometry">
            <mxRectangle width="67" height="51" as="alternateBounds" />
          </mxGeometry>
        </mxCell>
        <mxCell id="YOguvEMQ_99iYduZ2-tK-40" value="..." style="shape=partialRectangle;html=1;whiteSpace=wrap;connectable=0;fillColor=none;top=0;left=0;bottom=0;right=0;overflow=hidden;fontSize=12;" vertex="1" parent="YOguvEMQ_99iYduZ2-tK-34">
          <mxGeometry x="334" width="66" height="51" as="geometry">
            <mxRectangle width="66" height="51" as="alternateBounds" />
          </mxGeometry>
        </mxCell>
        <mxCell id="YOguvEMQ_99iYduZ2-tK-44" style="shape=tableRow;horizontal=0;startSize=0;swimlaneHead=0;swimlaneBody=0;top=0;left=0;bottom=0;right=0;collapsible=0;dropTarget=0;fillColor=none;points=[[0,0.5],[1,0.5]];portConstraint=eastwest;" vertex="1" parent="YOguvEMQ_99iYduZ2-tK-5">
          <mxGeometry y="257" width="400" height="52" as="geometry" />
        </mxCell>
        <mxCell id="YOguvEMQ_99iYduZ2-tK-45" value="..." style="shape=partialRectangle;html=1;whiteSpace=wrap;connectable=0;fillColor=none;top=0;left=0;bottom=0;right=0;overflow=hidden;fontSize=12;" vertex="1" parent="YOguvEMQ_99iYduZ2-tK-44">
          <mxGeometry width="66" height="52" as="geometry">
            <mxRectangle width="66" height="52" as="alternateBounds" />
          </mxGeometry>
        </mxCell>
        <mxCell id="YOguvEMQ_99iYduZ2-tK-46" style="shape=partialRectangle;html=1;whiteSpace=wrap;connectable=0;fillColor=none;top=0;left=0;bottom=0;right=0;overflow=hidden;fontSize=12;" vertex="1" parent="YOguvEMQ_99iYduZ2-tK-44">
          <mxGeometry x="66" width="68" height="52" as="geometry">
            <mxRectangle width="68" height="52" as="alternateBounds" />
          </mxGeometry>
        </mxCell>
        <mxCell id="YOguvEMQ_99iYduZ2-tK-47" style="shape=partialRectangle;html=1;whiteSpace=wrap;connectable=0;fillColor=none;top=0;left=0;bottom=0;right=0;overflow=hidden;fontSize=12;" vertex="1" parent="YOguvEMQ_99iYduZ2-tK-44">
          <mxGeometry x="134" width="67" height="52" as="geometry">
            <mxRectangle width="67" height="52" as="alternateBounds" />
          </mxGeometry>
        </mxCell>
        <mxCell id="YOguvEMQ_99iYduZ2-tK-48" style="shape=partialRectangle;html=1;whiteSpace=wrap;connectable=0;fillColor=none;top=0;left=0;bottom=0;right=0;overflow=hidden;fontSize=12;" vertex="1" parent="YOguvEMQ_99iYduZ2-tK-44">
          <mxGeometry x="201" width="66" height="52" as="geometry">
            <mxRectangle width="66" height="52" as="alternateBounds" />
          </mxGeometry>
        </mxCell>
        <mxCell id="YOguvEMQ_99iYduZ2-tK-49" style="shape=partialRectangle;html=1;whiteSpace=wrap;connectable=0;fillColor=none;top=0;left=0;bottom=0;right=0;overflow=hidden;fontSize=12;" vertex="1" parent="YOguvEMQ_99iYduZ2-tK-44">
          <mxGeometry x="267" width="67" height="52" as="geometry">
            <mxRectangle width="67" height="52" as="alternateBounds" />
          </mxGeometry>
        </mxCell>
        <mxCell id="YOguvEMQ_99iYduZ2-tK-50" value="..." style="shape=partialRectangle;html=1;whiteSpace=wrap;connectable=0;fillColor=none;top=0;left=0;bottom=0;right=0;overflow=hidden;fontSize=12;" vertex="1" parent="YOguvEMQ_99iYduZ2-tK-44">
          <mxGeometry x="334" width="66" height="52" as="geometry">
            <mxRectangle width="66" height="52" as="alternateBounds" />
          </mxGeometry>
        </mxCell>
        <mxCell id="YOguvEMQ_99iYduZ2-tK-51" style="shape=tableRow;horizontal=0;startSize=0;swimlaneHead=0;swimlaneBody=0;top=0;left=0;bottom=0;right=0;collapsible=0;dropTarget=0;fillColor=none;points=[[0,0.5],[1,0.5]];portConstraint=eastwest;" vertex="1" parent="YOguvEMQ_99iYduZ2-tK-5">
          <mxGeometry y="309" width="400" height="51" as="geometry" />
        </mxCell>
        <mxCell id="YOguvEMQ_99iYduZ2-tK-52" value="&lt;font style=&quot;font-size: 10px;&quot;&gt;Message-feature (N, 1)&lt;br&gt;&lt;/font&gt;" style="shape=partialRectangle;html=1;whiteSpace=wrap;connectable=0;fillColor=none;top=0;left=0;bottom=0;right=0;overflow=hidden;fontSize=12;" vertex="1" parent="YOguvEMQ_99iYduZ2-tK-51">
          <mxGeometry width="66" height="51" as="geometry">
            <mxRectangle width="66" height="51" as="alternateBounds" />
          </mxGeometry>
        </mxCell>
        <mxCell id="YOguvEMQ_99iYduZ2-tK-53" value="..." style="shape=partialRectangle;html=1;whiteSpace=wrap;connectable=0;fillColor=none;top=0;left=0;bottom=0;right=0;overflow=hidden;fontSize=12;" vertex="1" parent="YOguvEMQ_99iYduZ2-tK-51">
          <mxGeometry x="66" width="68" height="51" as="geometry">
            <mxRectangle width="68" height="51" as="alternateBounds" />
          </mxGeometry>
        </mxCell>
        <mxCell id="YOguvEMQ_99iYduZ2-tK-54" value="..." style="shape=partialRectangle;html=1;whiteSpace=wrap;connectable=0;fillColor=none;top=0;left=0;bottom=0;right=0;overflow=hidden;fontSize=12;" vertex="1" parent="YOguvEMQ_99iYduZ2-tK-51">
          <mxGeometry x="134" width="67" height="51" as="geometry">
            <mxRectangle width="67" height="51" as="alternateBounds" />
          </mxGeometry>
        </mxCell>
        <mxCell id="YOguvEMQ_99iYduZ2-tK-55" value="..." style="shape=partialRectangle;html=1;whiteSpace=wrap;connectable=0;fillColor=none;top=0;left=0;bottom=0;right=0;overflow=hidden;fontSize=12;" vertex="1" parent="YOguvEMQ_99iYduZ2-tK-51">
          <mxGeometry x="201" width="66" height="51" as="geometry">
            <mxRectangle width="66" height="51" as="alternateBounds" />
          </mxGeometry>
        </mxCell>
        <mxCell id="YOguvEMQ_99iYduZ2-tK-56" value="..." style="shape=partialRectangle;html=1;whiteSpace=wrap;connectable=0;fillColor=none;top=0;left=0;bottom=0;right=0;overflow=hidden;fontSize=12;" vertex="1" parent="YOguvEMQ_99iYduZ2-tK-51">
          <mxGeometry x="267" width="67" height="51" as="geometry">
            <mxRectangle width="67" height="51" as="alternateBounds" />
          </mxGeometry>
        </mxCell>
        <mxCell id="YOguvEMQ_99iYduZ2-tK-57" value="&lt;font style=&quot;font-size: 10px;&quot;&gt;Message-feature (N,P)&lt;br&gt;&lt;/font&gt;" style="shape=partialRectangle;html=1;whiteSpace=wrap;connectable=0;fillColor=none;top=0;left=0;bottom=0;right=0;overflow=hidden;fontSize=12;" vertex="1" parent="YOguvEMQ_99iYduZ2-tK-51">
          <mxGeometry x="334" width="66" height="51" as="geometry">
            <mxRectangle width="66" height="51" as="alternateBounds" />
          </mxGeometry>
        </mxCell>
        <mxCell id="YOguvEMQ_99iYduZ2-tK-42" value="Features &lt;i&gt;j &lt;/i&gt;in&lt;i&gt; &lt;/i&gt;[1,P]" style="text;html=1;align=center;verticalAlign=middle;resizable=0;points=[];autosize=1;strokeColor=none;fillColor=none;" vertex="1" parent="1">
          <mxGeometry x="220" y="50" width="120" height="30" as="geometry" />
        </mxCell>
        <mxCell id="YOguvEMQ_99iYduZ2-tK-43" value="Messages &lt;i&gt;i &lt;/i&gt;in [1, N]" style="text;html=1;align=center;verticalAlign=middle;resizable=0;points=[];autosize=1;strokeColor=none;fillColor=none;rotation=270;" vertex="1" parent="1">
          <mxGeometry y="245" width="130" height="30" as="geometry" />
        </mxCell>
        <mxCell id="YOguvEMQ_99iYduZ2-tK-59" value="" style="shape=table;html=1;whiteSpace=wrap;startSize=0;container=1;collapsible=0;childLayout=tableLayout;columnLines=0;rowLines=0;fillColor=#d5e8d4;strokeColor=#82b366;" vertex="1" parent="1">
          <mxGeometry x="520" y="80" width="240" height="40" as="geometry" />
        </mxCell>
        <mxCell id="YOguvEMQ_99iYduZ2-tK-102" style="shape=tableRow;horizontal=0;startSize=0;swimlaneHead=0;swimlaneBody=0;top=0;left=0;bottom=0;right=0;collapsible=0;dropTarget=0;fillColor=none;points=[[0,0.5],[1,0.5]];portConstraint=eastwest;" vertex="1" parent="YOguvEMQ_99iYduZ2-tK-59">
          <mxGeometry width="240" height="40" as="geometry" />
        </mxCell>
        <mxCell id="YOguvEMQ_99iYduZ2-tK-103" value="..." style="shape=partialRectangle;html=1;whiteSpace=wrap;connectable=0;fillColor=none;top=0;left=0;bottom=0;right=0;overflow=hidden;fontSize=12;" vertex="1" parent="YOguvEMQ_99iYduZ2-tK-102">
          <mxGeometry width="40" height="40" as="geometry">
            <mxRectangle width="40" height="40" as="alternateBounds" />
          </mxGeometry>
        </mxCell>
        <mxCell id="YOguvEMQ_99iYduZ2-tK-104" value="..." style="shape=partialRectangle;html=1;whiteSpace=wrap;connectable=0;fillColor=none;top=0;left=0;bottom=0;right=0;overflow=hidden;fontSize=12;" vertex="1" parent="YOguvEMQ_99iYduZ2-tK-102">
          <mxGeometry x="40" width="40" height="40" as="geometry">
            <mxRectangle width="40" height="40" as="alternateBounds" />
          </mxGeometry>
        </mxCell>
        <mxCell id="YOguvEMQ_99iYduZ2-tK-105" value="..." style="shape=partialRectangle;html=1;whiteSpace=wrap;connectable=0;fillColor=none;top=0;left=0;bottom=0;right=0;overflow=hidden;fontSize=12;" vertex="1" parent="YOguvEMQ_99iYduZ2-tK-102">
          <mxGeometry x="80" width="41" height="40" as="geometry">
            <mxRectangle width="41" height="40" as="alternateBounds" />
          </mxGeometry>
        </mxCell>
        <mxCell id="YOguvEMQ_99iYduZ2-tK-106" value="..." style="shape=partialRectangle;html=1;whiteSpace=wrap;connectable=0;fillColor=none;top=0;left=0;bottom=0;right=0;overflow=hidden;fontSize=12;" vertex="1" parent="YOguvEMQ_99iYduZ2-tK-102">
          <mxGeometry x="121" width="39" height="40" as="geometry">
            <mxRectangle width="39" height="40" as="alternateBounds" />
          </mxGeometry>
        </mxCell>
        <mxCell id="YOguvEMQ_99iYduZ2-tK-107" value="..." style="shape=partialRectangle;html=1;whiteSpace=wrap;connectable=0;fillColor=none;top=0;left=0;bottom=0;right=0;overflow=hidden;fontSize=12;" vertex="1" parent="YOguvEMQ_99iYduZ2-tK-102">
          <mxGeometry x="160" width="40" height="40" as="geometry">
            <mxRectangle width="40" height="40" as="alternateBounds" />
          </mxGeometry>
        </mxCell>
        <mxCell id="YOguvEMQ_99iYduZ2-tK-108" value="..." style="shape=partialRectangle;html=1;whiteSpace=wrap;connectable=0;fillColor=none;top=0;left=0;bottom=0;right=0;overflow=hidden;fontSize=12;" vertex="1" parent="YOguvEMQ_99iYduZ2-tK-102">
          <mxGeometry x="200" width="40" height="40" as="geometry">
            <mxRectangle width="40" height="40" as="alternateBounds" />
          </mxGeometry>
        </mxCell>
        <mxCell id="YOguvEMQ_99iYduZ2-tK-211" value="&lt;font style=&quot;font-size: 12px;&quot;&gt;Enrichment Features &lt;i&gt;k &lt;/i&gt;in [1,Q]&lt;/font&gt;" style="text;html=1;align=center;verticalAlign=middle;resizable=0;points=[];autosize=1;strokeColor=none;fillColor=none;fontSize=10;" vertex="1" parent="1">
          <mxGeometry x="545" y="50" width="190" height="30" as="geometry" />
        </mxCell>
        <mxCell id="YOguvEMQ_99iYduZ2-tK-212" value="" style="group" vertex="1" connectable="0" parent="1">
          <mxGeometry x="49.999999999999986" y="480" width="710" height="257" as="geometry" />
        </mxCell>
        <mxCell id="YOguvEMQ_99iYduZ2-tK-109" value="" style="shape=table;html=1;whiteSpace=wrap;startSize=0;container=1;collapsible=0;childLayout=tableLayout;columnLines=0;rowLines=0;fillColor=#ffe6cc;strokeColor=#d79b00;" vertex="1" parent="YOguvEMQ_99iYduZ2-tK-212">
          <mxGeometry x="30.000000000000014" width="400" height="257" as="geometry" />
        </mxCell>
        <mxCell id="YOguvEMQ_99iYduZ2-tK-110" value="" style="shape=tableRow;horizontal=0;startSize=0;swimlaneHead=0;swimlaneBody=0;top=0;left=0;bottom=0;right=0;collapsible=0;dropTarget=0;fillColor=none;points=[[0,0.5],[1,0.5]];portConstraint=eastwest;" vertex="1" parent="YOguvEMQ_99iYduZ2-tK-109">
          <mxGeometry width="400" height="51" as="geometry" />
        </mxCell>
        <mxCell id="YOguvEMQ_99iYduZ2-tK-111" value="SynMessage-feature (1,1)" style="shape=partialRectangle;html=1;whiteSpace=wrap;connectable=0;fillColor=none;top=0;left=0;bottom=0;right=0;overflow=hidden;fontSize=10;" vertex="1" parent="YOguvEMQ_99iYduZ2-tK-110">
          <mxGeometry width="66" height="51" as="geometry">
            <mxRectangle width="66" height="51" as="alternateBounds" />
          </mxGeometry>
        </mxCell>
        <mxCell id="YOguvEMQ_99iYduZ2-tK-112" value="SynMessage-feature (1,2)" style="shape=partialRectangle;html=1;whiteSpace=wrap;connectable=0;fillColor=none;top=0;left=0;bottom=0;right=0;overflow=hidden;fontSize=10;" vertex="1" parent="YOguvEMQ_99iYduZ2-tK-110">
          <mxGeometry x="66" width="68" height="51" as="geometry">
            <mxRectangle width="68" height="51" as="alternateBounds" />
          </mxGeometry>
        </mxCell>
        <mxCell id="YOguvEMQ_99iYduZ2-tK-113" value="..." style="shape=partialRectangle;html=1;whiteSpace=wrap;connectable=0;fillColor=none;top=0;left=0;bottom=0;right=0;overflow=hidden;fontSize=12;" vertex="1" parent="YOguvEMQ_99iYduZ2-tK-110">
          <mxGeometry x="134" width="67" height="51" as="geometry">
            <mxRectangle width="67" height="51" as="alternateBounds" />
          </mxGeometry>
        </mxCell>
        <mxCell id="YOguvEMQ_99iYduZ2-tK-114" value="..." style="shape=partialRectangle;html=1;whiteSpace=wrap;connectable=0;fillColor=none;top=0;left=0;bottom=0;right=0;overflow=hidden;fontSize=12;" vertex="1" parent="YOguvEMQ_99iYduZ2-tK-110">
          <mxGeometry x="201" width="66" height="51" as="geometry">
            <mxRectangle width="66" height="51" as="alternateBounds" />
          </mxGeometry>
        </mxCell>
        <mxCell id="YOguvEMQ_99iYduZ2-tK-115" value="..." style="shape=partialRectangle;html=1;whiteSpace=wrap;connectable=0;fillColor=none;top=0;left=0;bottom=0;right=0;overflow=hidden;fontSize=12;" vertex="1" parent="YOguvEMQ_99iYduZ2-tK-110">
          <mxGeometry x="267" width="67" height="51" as="geometry">
            <mxRectangle width="67" height="51" as="alternateBounds" />
          </mxGeometry>
        </mxCell>
        <mxCell id="YOguvEMQ_99iYduZ2-tK-116" value="SynMessage-feature (1,P)" style="shape=partialRectangle;html=1;whiteSpace=wrap;connectable=0;fillColor=none;top=0;left=0;bottom=0;right=0;overflow=hidden;fontSize=10;" vertex="1" parent="YOguvEMQ_99iYduZ2-tK-110">
          <mxGeometry x="334" width="66" height="51" as="geometry">
            <mxRectangle width="66" height="51" as="alternateBounds" />
          </mxGeometry>
        </mxCell>
        <mxCell id="YOguvEMQ_99iYduZ2-tK-117" value="" style="shape=tableRow;horizontal=0;startSize=0;swimlaneHead=0;swimlaneBody=0;top=0;left=0;bottom=0;right=0;collapsible=0;dropTarget=0;fillColor=none;points=[[0,0.5],[1,0.5]];portConstraint=eastwest;" vertex="1" parent="YOguvEMQ_99iYduZ2-tK-109">
          <mxGeometry y="51" width="400" height="53" as="geometry" />
        </mxCell>
        <mxCell id="YOguvEMQ_99iYduZ2-tK-118" value="SynMessage-feature (2, 1)" style="shape=partialRectangle;html=1;whiteSpace=wrap;connectable=0;fillColor=none;top=0;left=0;bottom=0;right=0;overflow=hidden;fontSize=10;" vertex="1" parent="YOguvEMQ_99iYduZ2-tK-117">
          <mxGeometry width="66" height="53" as="geometry">
            <mxRectangle width="66" height="53" as="alternateBounds" />
          </mxGeometry>
        </mxCell>
        <mxCell id="YOguvEMQ_99iYduZ2-tK-119" value="..." style="shape=partialRectangle;html=1;whiteSpace=wrap;connectable=0;fillColor=none;top=0;left=0;bottom=0;right=0;overflow=hidden;fontSize=12;" vertex="1" parent="YOguvEMQ_99iYduZ2-tK-117">
          <mxGeometry x="66" width="68" height="53" as="geometry">
            <mxRectangle width="68" height="53" as="alternateBounds" />
          </mxGeometry>
        </mxCell>
        <mxCell id="YOguvEMQ_99iYduZ2-tK-120" value="" style="shape=partialRectangle;html=1;whiteSpace=wrap;connectable=0;fillColor=none;top=0;left=0;bottom=0;right=0;overflow=hidden;fontSize=12;" vertex="1" parent="YOguvEMQ_99iYduZ2-tK-117">
          <mxGeometry x="134" width="67" height="53" as="geometry">
            <mxRectangle width="67" height="53" as="alternateBounds" />
          </mxGeometry>
        </mxCell>
        <mxCell id="YOguvEMQ_99iYduZ2-tK-121" value="" style="shape=partialRectangle;html=1;whiteSpace=wrap;connectable=0;fillColor=none;top=0;left=0;bottom=0;right=0;overflow=hidden;fontSize=12;" vertex="1" parent="YOguvEMQ_99iYduZ2-tK-117">
          <mxGeometry x="201" width="66" height="53" as="geometry">
            <mxRectangle width="66" height="53" as="alternateBounds" />
          </mxGeometry>
        </mxCell>
        <mxCell id="YOguvEMQ_99iYduZ2-tK-122" value="" style="shape=partialRectangle;html=1;whiteSpace=wrap;connectable=0;fillColor=none;top=0;left=0;bottom=0;right=0;overflow=hidden;fontSize=12;" vertex="1" parent="YOguvEMQ_99iYduZ2-tK-117">
          <mxGeometry x="267" width="67" height="53" as="geometry">
            <mxRectangle width="67" height="53" as="alternateBounds" />
          </mxGeometry>
        </mxCell>
        <mxCell id="YOguvEMQ_99iYduZ2-tK-123" value="..." style="shape=partialRectangle;html=1;whiteSpace=wrap;connectable=0;fillColor=none;top=0;left=0;bottom=0;right=0;overflow=hidden;fontSize=12;" vertex="1" parent="YOguvEMQ_99iYduZ2-tK-117">
          <mxGeometry x="334" width="66" height="53" as="geometry">
            <mxRectangle width="66" height="53" as="alternateBounds" />
          </mxGeometry>
        </mxCell>
        <mxCell id="YOguvEMQ_99iYduZ2-tK-124" value="" style="shape=tableRow;horizontal=0;startSize=0;swimlaneHead=0;swimlaneBody=0;top=0;left=0;bottom=0;right=0;collapsible=0;dropTarget=0;fillColor=none;points=[[0,0.5],[1,0.5]];portConstraint=eastwest;" vertex="1" parent="YOguvEMQ_99iYduZ2-tK-109">
          <mxGeometry y="104" width="400" height="51" as="geometry" />
        </mxCell>
        <mxCell id="YOguvEMQ_99iYduZ2-tK-125" value="..." style="shape=partialRectangle;html=1;whiteSpace=wrap;connectable=0;fillColor=none;top=0;left=0;bottom=0;right=0;overflow=hidden;fontSize=12;" vertex="1" parent="YOguvEMQ_99iYduZ2-tK-124">
          <mxGeometry width="66" height="51" as="geometry">
            <mxRectangle width="66" height="51" as="alternateBounds" />
          </mxGeometry>
        </mxCell>
        <mxCell id="YOguvEMQ_99iYduZ2-tK-126" value="" style="shape=partialRectangle;html=1;whiteSpace=wrap;connectable=0;fillColor=none;top=0;left=0;bottom=0;right=0;overflow=hidden;fontSize=12;" vertex="1" parent="YOguvEMQ_99iYduZ2-tK-124">
          <mxGeometry x="66" width="68" height="51" as="geometry">
            <mxRectangle width="68" height="51" as="alternateBounds" />
          </mxGeometry>
        </mxCell>
        <mxCell id="YOguvEMQ_99iYduZ2-tK-127" value="..." style="shape=partialRectangle;html=1;whiteSpace=wrap;connectable=0;fillColor=none;top=0;left=0;bottom=0;right=0;overflow=hidden;fontSize=12;" vertex="1" parent="YOguvEMQ_99iYduZ2-tK-124">
          <mxGeometry x="134" width="67" height="51" as="geometry">
            <mxRectangle width="67" height="51" as="alternateBounds" />
          </mxGeometry>
        </mxCell>
        <mxCell id="YOguvEMQ_99iYduZ2-tK-128" style="shape=partialRectangle;html=1;whiteSpace=wrap;connectable=0;fillColor=none;top=0;left=0;bottom=0;right=0;overflow=hidden;fontSize=12;" vertex="1" parent="YOguvEMQ_99iYduZ2-tK-124">
          <mxGeometry x="201" width="66" height="51" as="geometry">
            <mxRectangle width="66" height="51" as="alternateBounds" />
          </mxGeometry>
        </mxCell>
        <mxCell id="YOguvEMQ_99iYduZ2-tK-129" style="shape=partialRectangle;html=1;whiteSpace=wrap;connectable=0;fillColor=none;top=0;left=0;bottom=0;right=0;overflow=hidden;fontSize=12;" vertex="1" parent="YOguvEMQ_99iYduZ2-tK-124">
          <mxGeometry x="267" width="67" height="51" as="geometry">
            <mxRectangle width="67" height="51" as="alternateBounds" />
          </mxGeometry>
        </mxCell>
        <mxCell id="YOguvEMQ_99iYduZ2-tK-130" value="..." style="shape=partialRectangle;html=1;whiteSpace=wrap;connectable=0;fillColor=none;top=0;left=0;bottom=0;right=0;overflow=hidden;fontSize=12;" vertex="1" parent="YOguvEMQ_99iYduZ2-tK-124">
          <mxGeometry x="334" width="66" height="51" as="geometry">
            <mxRectangle width="66" height="51" as="alternateBounds" />
          </mxGeometry>
        </mxCell>
        <mxCell id="YOguvEMQ_99iYduZ2-tK-131" style="shape=tableRow;horizontal=0;startSize=0;swimlaneHead=0;swimlaneBody=0;top=0;left=0;bottom=0;right=0;collapsible=0;dropTarget=0;fillColor=none;points=[[0,0.5],[1,0.5]];portConstraint=eastwest;" vertex="1" parent="YOguvEMQ_99iYduZ2-tK-109">
          <mxGeometry y="155" width="400" height="51" as="geometry" />
        </mxCell>
        <mxCell id="YOguvEMQ_99iYduZ2-tK-132" value="..." style="shape=partialRectangle;html=1;whiteSpace=wrap;connectable=0;fillColor=none;top=0;left=0;bottom=0;right=0;overflow=hidden;fontSize=12;" vertex="1" parent="YOguvEMQ_99iYduZ2-tK-131">
          <mxGeometry width="66" height="51" as="geometry">
            <mxRectangle width="66" height="51" as="alternateBounds" />
          </mxGeometry>
        </mxCell>
        <mxCell id="YOguvEMQ_99iYduZ2-tK-133" style="shape=partialRectangle;html=1;whiteSpace=wrap;connectable=0;fillColor=none;top=0;left=0;bottom=0;right=0;overflow=hidden;fontSize=12;" vertex="1" parent="YOguvEMQ_99iYduZ2-tK-131">
          <mxGeometry x="66" width="68" height="51" as="geometry">
            <mxRectangle width="68" height="51" as="alternateBounds" />
          </mxGeometry>
        </mxCell>
        <mxCell id="YOguvEMQ_99iYduZ2-tK-134" style="shape=partialRectangle;html=1;whiteSpace=wrap;connectable=0;fillColor=none;top=0;left=0;bottom=0;right=0;overflow=hidden;fontSize=12;" vertex="1" parent="YOguvEMQ_99iYduZ2-tK-131">
          <mxGeometry x="134" width="67" height="51" as="geometry">
            <mxRectangle width="67" height="51" as="alternateBounds" />
          </mxGeometry>
        </mxCell>
        <mxCell id="YOguvEMQ_99iYduZ2-tK-135" value="..." style="shape=partialRectangle;html=1;whiteSpace=wrap;connectable=0;fillColor=none;top=0;left=0;bottom=0;right=0;overflow=hidden;fontSize=12;" vertex="1" parent="YOguvEMQ_99iYduZ2-tK-131">
          <mxGeometry x="201" width="66" height="51" as="geometry">
            <mxRectangle width="66" height="51" as="alternateBounds" />
          </mxGeometry>
        </mxCell>
        <mxCell id="YOguvEMQ_99iYduZ2-tK-136" style="shape=partialRectangle;html=1;whiteSpace=wrap;connectable=0;fillColor=none;top=0;left=0;bottom=0;right=0;overflow=hidden;fontSize=12;" vertex="1" parent="YOguvEMQ_99iYduZ2-tK-131">
          <mxGeometry x="267" width="67" height="51" as="geometry">
            <mxRectangle width="67" height="51" as="alternateBounds" />
          </mxGeometry>
        </mxCell>
        <mxCell id="YOguvEMQ_99iYduZ2-tK-137" value="..." style="shape=partialRectangle;html=1;whiteSpace=wrap;connectable=0;fillColor=none;top=0;left=0;bottom=0;right=0;overflow=hidden;fontSize=12;" vertex="1" parent="YOguvEMQ_99iYduZ2-tK-131">
          <mxGeometry x="334" width="66" height="51" as="geometry">
            <mxRectangle width="66" height="51" as="alternateBounds" />
          </mxGeometry>
        </mxCell>
        <mxCell id="YOguvEMQ_99iYduZ2-tK-152" style="shape=tableRow;horizontal=0;startSize=0;swimlaneHead=0;swimlaneBody=0;top=0;left=0;bottom=0;right=0;collapsible=0;dropTarget=0;fillColor=none;points=[[0,0.5],[1,0.5]];portConstraint=eastwest;" vertex="1" parent="YOguvEMQ_99iYduZ2-tK-109">
          <mxGeometry y="206" width="400" height="51" as="geometry" />
        </mxCell>
        <mxCell id="YOguvEMQ_99iYduZ2-tK-153" value="Syn&lt;font style=&quot;font-size: 10px;&quot;&gt;Message-feature (M, 1)&lt;br&gt;&lt;/font&gt;" style="shape=partialRectangle;html=1;whiteSpace=wrap;connectable=0;fillColor=none;top=0;left=0;bottom=0;right=0;overflow=hidden;fontSize=12;" vertex="1" parent="YOguvEMQ_99iYduZ2-tK-152">
          <mxGeometry width="66" height="51" as="geometry">
            <mxRectangle width="66" height="51" as="alternateBounds" />
          </mxGeometry>
        </mxCell>
        <mxCell id="YOguvEMQ_99iYduZ2-tK-154" value="..." style="shape=partialRectangle;html=1;whiteSpace=wrap;connectable=0;fillColor=none;top=0;left=0;bottom=0;right=0;overflow=hidden;fontSize=12;" vertex="1" parent="YOguvEMQ_99iYduZ2-tK-152">
          <mxGeometry x="66" width="68" height="51" as="geometry">
            <mxRectangle width="68" height="51" as="alternateBounds" />
          </mxGeometry>
        </mxCell>
        <mxCell id="YOguvEMQ_99iYduZ2-tK-155" value="..." style="shape=partialRectangle;html=1;whiteSpace=wrap;connectable=0;fillColor=none;top=0;left=0;bottom=0;right=0;overflow=hidden;fontSize=12;" vertex="1" parent="YOguvEMQ_99iYduZ2-tK-152">
          <mxGeometry x="134" width="67" height="51" as="geometry">
            <mxRectangle width="67" height="51" as="alternateBounds" />
          </mxGeometry>
        </mxCell>
        <mxCell id="YOguvEMQ_99iYduZ2-tK-156" value="..." style="shape=partialRectangle;html=1;whiteSpace=wrap;connectable=0;fillColor=none;top=0;left=0;bottom=0;right=0;overflow=hidden;fontSize=12;" vertex="1" parent="YOguvEMQ_99iYduZ2-tK-152">
          <mxGeometry x="201" width="66" height="51" as="geometry">
            <mxRectangle width="66" height="51" as="alternateBounds" />
          </mxGeometry>
        </mxCell>
        <mxCell id="YOguvEMQ_99iYduZ2-tK-157" value="..." style="shape=partialRectangle;html=1;whiteSpace=wrap;connectable=0;fillColor=none;top=0;left=0;bottom=0;right=0;overflow=hidden;fontSize=12;" vertex="1" parent="YOguvEMQ_99iYduZ2-tK-152">
          <mxGeometry x="267" width="67" height="51" as="geometry">
            <mxRectangle width="67" height="51" as="alternateBounds" />
          </mxGeometry>
        </mxCell>
        <mxCell id="YOguvEMQ_99iYduZ2-tK-158" value="Syn&lt;font style=&quot;font-size: 10px;&quot;&gt;Message-feature (M,P)&lt;br&gt;&lt;/font&gt;" style="shape=partialRectangle;html=1;whiteSpace=wrap;connectable=0;fillColor=none;top=0;left=0;bottom=0;right=0;overflow=hidden;fontSize=12;" vertex="1" parent="YOguvEMQ_99iYduZ2-tK-152">
          <mxGeometry x="334" width="66" height="51" as="geometry">
            <mxRectangle width="66" height="51" as="alternateBounds" />
          </mxGeometry>
        </mxCell>
        <mxCell id="YOguvEMQ_99iYduZ2-tK-160" value="&lt;font style=&quot;font-size: 12px;&quot;&gt;Synthetic Messages &lt;i&gt;i &lt;/i&gt;in [1, M]&lt;/font&gt;" style="text;html=1;align=center;verticalAlign=middle;resizable=0;points=[];autosize=1;strokeColor=none;fillColor=none;fontSize=10;rotation=270;" vertex="1" parent="YOguvEMQ_99iYduZ2-tK-212">
          <mxGeometry x="-74.99999999999999" y="113.5" width="180" height="30" as="geometry" />
        </mxCell>
        <mxCell id="YOguvEMQ_99iYduZ2-tK-161" value="" style="shape=table;html=1;whiteSpace=wrap;startSize=0;container=1;collapsible=0;childLayout=tableLayout;columnLines=0;rowLines=0;fillColor=#d5e8d4;strokeColor=#82b366;" vertex="1" parent="YOguvEMQ_99iYduZ2-tK-212">
          <mxGeometry x="470" width="240" height="257" as="geometry" />
        </mxCell>
        <mxCell id="YOguvEMQ_99iYduZ2-tK-162" value="" style="shape=tableRow;horizontal=0;startSize=0;swimlaneHead=0;swimlaneBody=0;top=0;left=0;bottom=0;right=0;collapsible=0;dropTarget=0;fillColor=none;points=[[0,0.5],[1,0.5]];portConstraint=eastwest;" vertex="1" parent="YOguvEMQ_99iYduZ2-tK-161">
          <mxGeometry width="240" height="51" as="geometry" />
        </mxCell>
        <mxCell id="YOguvEMQ_99iYduZ2-tK-163" value="&lt;font style=&quot;font-size: 10px;&quot;&gt;SM-Enr.Feat. (1,1)&lt;br&gt;&lt;/font&gt;" style="shape=partialRectangle;html=1;whiteSpace=wrap;connectable=0;fillColor=none;top=0;left=0;bottom=0;right=0;overflow=hidden;fontSize=12;" vertex="1" parent="YOguvEMQ_99iYduZ2-tK-162">
          <mxGeometry width="60" height="51" as="geometry">
            <mxRectangle width="60" height="51" as="alternateBounds" />
          </mxGeometry>
        </mxCell>
        <mxCell id="YOguvEMQ_99iYduZ2-tK-164" value="&lt;font style=&quot;font-size: 10px;&quot;&gt;SM-Enr.Feat. (1,2)&lt;br&gt;&lt;/font&gt;" style="shape=partialRectangle;html=1;whiteSpace=wrap;connectable=0;fillColor=none;top=0;left=0;bottom=0;right=0;overflow=hidden;fontSize=12;" vertex="1" parent="YOguvEMQ_99iYduZ2-tK-162">
          <mxGeometry x="60" width="59" height="51" as="geometry">
            <mxRectangle width="59" height="51" as="alternateBounds" />
          </mxGeometry>
        </mxCell>
        <mxCell id="YOguvEMQ_99iYduZ2-tK-165" value="..." style="shape=partialRectangle;html=1;whiteSpace=wrap;connectable=0;fillColor=none;top=0;left=0;bottom=0;right=0;overflow=hidden;fontSize=12;" vertex="1" parent="YOguvEMQ_99iYduZ2-tK-162">
          <mxGeometry x="119" width="61" height="51" as="geometry">
            <mxRectangle width="61" height="51" as="alternateBounds" />
          </mxGeometry>
        </mxCell>
        <mxCell id="YOguvEMQ_99iYduZ2-tK-168" value="&lt;font style=&quot;font-size: 10px;&quot;&gt;SM-Enr.Feat. (1,Q)&lt;br&gt;&lt;/font&gt;" style="shape=partialRectangle;html=1;whiteSpace=wrap;connectable=0;fillColor=none;top=0;left=0;bottom=0;right=0;overflow=hidden;fontSize=12;" vertex="1" parent="YOguvEMQ_99iYduZ2-tK-162">
          <mxGeometry x="180" width="60" height="51" as="geometry">
            <mxRectangle width="60" height="51" as="alternateBounds" />
          </mxGeometry>
        </mxCell>
        <mxCell id="YOguvEMQ_99iYduZ2-tK-169" value="" style="shape=tableRow;horizontal=0;startSize=0;swimlaneHead=0;swimlaneBody=0;top=0;left=0;bottom=0;right=0;collapsible=0;dropTarget=0;fillColor=none;points=[[0,0.5],[1,0.5]];portConstraint=eastwest;" vertex="1" parent="YOguvEMQ_99iYduZ2-tK-161">
          <mxGeometry y="51" width="240" height="53" as="geometry" />
        </mxCell>
        <mxCell id="YOguvEMQ_99iYduZ2-tK-170" value="&lt;font style=&quot;font-size: 10px;&quot;&gt;SM-Enr.Feat. (2,1)&lt;br&gt;&lt;/font&gt;" style="shape=partialRectangle;html=1;whiteSpace=wrap;connectable=0;fillColor=none;top=0;left=0;bottom=0;right=0;overflow=hidden;fontSize=12;" vertex="1" parent="YOguvEMQ_99iYduZ2-tK-169">
          <mxGeometry width="60" height="53" as="geometry">
            <mxRectangle width="60" height="53" as="alternateBounds" />
          </mxGeometry>
        </mxCell>
        <mxCell id="YOguvEMQ_99iYduZ2-tK-171" value="..." style="shape=partialRectangle;html=1;whiteSpace=wrap;connectable=0;fillColor=none;top=0;left=0;bottom=0;right=0;overflow=hidden;fontSize=12;" vertex="1" parent="YOguvEMQ_99iYduZ2-tK-169">
          <mxGeometry x="60" width="59" height="53" as="geometry">
            <mxRectangle width="59" height="53" as="alternateBounds" />
          </mxGeometry>
        </mxCell>
        <mxCell id="YOguvEMQ_99iYduZ2-tK-172" value="" style="shape=partialRectangle;html=1;whiteSpace=wrap;connectable=0;fillColor=none;top=0;left=0;bottom=0;right=0;overflow=hidden;fontSize=12;" vertex="1" parent="YOguvEMQ_99iYduZ2-tK-169">
          <mxGeometry x="119" width="61" height="53" as="geometry">
            <mxRectangle width="61" height="53" as="alternateBounds" />
          </mxGeometry>
        </mxCell>
        <mxCell id="YOguvEMQ_99iYduZ2-tK-175" value="..." style="shape=partialRectangle;html=1;whiteSpace=wrap;connectable=0;fillColor=none;top=0;left=0;bottom=0;right=0;overflow=hidden;fontSize=12;" vertex="1" parent="YOguvEMQ_99iYduZ2-tK-169">
          <mxGeometry x="180" width="60" height="53" as="geometry">
            <mxRectangle width="60" height="53" as="alternateBounds" />
          </mxGeometry>
        </mxCell>
        <mxCell id="YOguvEMQ_99iYduZ2-tK-176" value="" style="shape=tableRow;horizontal=0;startSize=0;swimlaneHead=0;swimlaneBody=0;top=0;left=0;bottom=0;right=0;collapsible=0;dropTarget=0;fillColor=none;points=[[0,0.5],[1,0.5]];portConstraint=eastwest;" vertex="1" parent="YOguvEMQ_99iYduZ2-tK-161">
          <mxGeometry y="104" width="240" height="51" as="geometry" />
        </mxCell>
        <mxCell id="YOguvEMQ_99iYduZ2-tK-177" value="..." style="shape=partialRectangle;html=1;whiteSpace=wrap;connectable=0;fillColor=none;top=0;left=0;bottom=0;right=0;overflow=hidden;fontSize=12;" vertex="1" parent="YOguvEMQ_99iYduZ2-tK-176">
          <mxGeometry width="60" height="51" as="geometry">
            <mxRectangle width="60" height="51" as="alternateBounds" />
          </mxGeometry>
        </mxCell>
        <mxCell id="YOguvEMQ_99iYduZ2-tK-178" value="" style="shape=partialRectangle;html=1;whiteSpace=wrap;connectable=0;fillColor=none;top=0;left=0;bottom=0;right=0;overflow=hidden;fontSize=12;" vertex="1" parent="YOguvEMQ_99iYduZ2-tK-176">
          <mxGeometry x="60" width="59" height="51" as="geometry">
            <mxRectangle width="59" height="51" as="alternateBounds" />
          </mxGeometry>
        </mxCell>
        <mxCell id="YOguvEMQ_99iYduZ2-tK-179" value="..." style="shape=partialRectangle;html=1;whiteSpace=wrap;connectable=0;fillColor=none;top=0;left=0;bottom=0;right=0;overflow=hidden;fontSize=12;" vertex="1" parent="YOguvEMQ_99iYduZ2-tK-176">
          <mxGeometry x="119" width="61" height="51" as="geometry">
            <mxRectangle width="61" height="51" as="alternateBounds" />
          </mxGeometry>
        </mxCell>
        <mxCell id="YOguvEMQ_99iYduZ2-tK-182" value="..." style="shape=partialRectangle;html=1;whiteSpace=wrap;connectable=0;fillColor=none;top=0;left=0;bottom=0;right=0;overflow=hidden;fontSize=12;" vertex="1" parent="YOguvEMQ_99iYduZ2-tK-176">
          <mxGeometry x="180" width="60" height="51" as="geometry">
            <mxRectangle width="60" height="51" as="alternateBounds" />
          </mxGeometry>
        </mxCell>
        <mxCell id="YOguvEMQ_99iYduZ2-tK-183" style="shape=tableRow;horizontal=0;startSize=0;swimlaneHead=0;swimlaneBody=0;top=0;left=0;bottom=0;right=0;collapsible=0;dropTarget=0;fillColor=none;points=[[0,0.5],[1,0.5]];portConstraint=eastwest;" vertex="1" parent="YOguvEMQ_99iYduZ2-tK-161">
          <mxGeometry y="155" width="240" height="51" as="geometry" />
        </mxCell>
        <mxCell id="YOguvEMQ_99iYduZ2-tK-184" value="..." style="shape=partialRectangle;html=1;whiteSpace=wrap;connectable=0;fillColor=none;top=0;left=0;bottom=0;right=0;overflow=hidden;fontSize=12;" vertex="1" parent="YOguvEMQ_99iYduZ2-tK-183">
          <mxGeometry width="60" height="51" as="geometry">
            <mxRectangle width="60" height="51" as="alternateBounds" />
          </mxGeometry>
        </mxCell>
        <mxCell id="YOguvEMQ_99iYduZ2-tK-185" style="shape=partialRectangle;html=1;whiteSpace=wrap;connectable=0;fillColor=none;top=0;left=0;bottom=0;right=0;overflow=hidden;fontSize=12;" vertex="1" parent="YOguvEMQ_99iYduZ2-tK-183">
          <mxGeometry x="60" width="59" height="51" as="geometry">
            <mxRectangle width="59" height="51" as="alternateBounds" />
          </mxGeometry>
        </mxCell>
        <mxCell id="YOguvEMQ_99iYduZ2-tK-186" style="shape=partialRectangle;html=1;whiteSpace=wrap;connectable=0;fillColor=none;top=0;left=0;bottom=0;right=0;overflow=hidden;fontSize=12;" vertex="1" parent="YOguvEMQ_99iYduZ2-tK-183">
          <mxGeometry x="119" width="61" height="51" as="geometry">
            <mxRectangle width="61" height="51" as="alternateBounds" />
          </mxGeometry>
        </mxCell>
        <mxCell id="YOguvEMQ_99iYduZ2-tK-189" value="..." style="shape=partialRectangle;html=1;whiteSpace=wrap;connectable=0;fillColor=none;top=0;left=0;bottom=0;right=0;overflow=hidden;fontSize=12;" vertex="1" parent="YOguvEMQ_99iYduZ2-tK-183">
          <mxGeometry x="180" width="60" height="51" as="geometry">
            <mxRectangle width="60" height="51" as="alternateBounds" />
          </mxGeometry>
        </mxCell>
        <mxCell id="YOguvEMQ_99iYduZ2-tK-204" style="shape=tableRow;horizontal=0;startSize=0;swimlaneHead=0;swimlaneBody=0;top=0;left=0;bottom=0;right=0;collapsible=0;dropTarget=0;fillColor=none;points=[[0,0.5],[1,0.5]];portConstraint=eastwest;" vertex="1" parent="YOguvEMQ_99iYduZ2-tK-161">
          <mxGeometry y="206" width="240" height="51" as="geometry" />
        </mxCell>
        <mxCell id="YOguvEMQ_99iYduZ2-tK-205" value="&lt;font style=&quot;font-size: 10px;&quot;&gt;SM-Enr.Feat. (M,1)&lt;br&gt;&lt;/font&gt;" style="shape=partialRectangle;html=1;whiteSpace=wrap;connectable=0;fillColor=none;top=0;left=0;bottom=0;right=0;overflow=hidden;fontSize=12;" vertex="1" parent="YOguvEMQ_99iYduZ2-tK-204">
          <mxGeometry width="60" height="51" as="geometry">
            <mxRectangle width="60" height="51" as="alternateBounds" />
          </mxGeometry>
        </mxCell>
        <mxCell id="YOguvEMQ_99iYduZ2-tK-206" value="..." style="shape=partialRectangle;html=1;whiteSpace=wrap;connectable=0;fillColor=none;top=0;left=0;bottom=0;right=0;overflow=hidden;fontSize=12;" vertex="1" parent="YOguvEMQ_99iYduZ2-tK-204">
          <mxGeometry x="60" width="59" height="51" as="geometry">
            <mxRectangle width="59" height="51" as="alternateBounds" />
          </mxGeometry>
        </mxCell>
        <mxCell id="YOguvEMQ_99iYduZ2-tK-207" value="..." style="shape=partialRectangle;html=1;whiteSpace=wrap;connectable=0;fillColor=none;top=0;left=0;bottom=0;right=0;overflow=hidden;fontSize=12;" vertex="1" parent="YOguvEMQ_99iYduZ2-tK-204">
          <mxGeometry x="119" width="61" height="51" as="geometry">
            <mxRectangle width="61" height="51" as="alternateBounds" />
          </mxGeometry>
        </mxCell>
        <mxCell id="YOguvEMQ_99iYduZ2-tK-210" value="&lt;font style=&quot;font-size: 10px;&quot;&gt;SM-Enr.Feat. (M,Q)&lt;br&gt;&lt;/font&gt;" style="shape=partialRectangle;html=1;whiteSpace=wrap;connectable=0;fillColor=none;top=0;left=0;bottom=0;right=0;overflow=hidden;fontSize=12;" vertex="1" parent="YOguvEMQ_99iYduZ2-tK-204">
          <mxGeometry x="180" width="60" height="51" as="geometry">
            <mxRectangle width="60" height="51" as="alternateBounds" />
          </mxGeometry>
        </mxCell>
        <mxCell id="YOguvEMQ_99iYduZ2-tK-214" value="" style="shape=table;html=1;whiteSpace=wrap;startSize=0;container=1;collapsible=0;childLayout=tableLayout;columnLines=0;rowLines=0;fillColor=#d5e8d4;strokeColor=#82b366;" vertex="1" parent="1">
          <mxGeometry x="520" y="200" width="240" height="120" as="geometry" />
        </mxCell>
        <mxCell id="YOguvEMQ_99iYduZ2-tK-215" style="shape=tableRow;horizontal=0;startSize=0;swimlaneHead=0;swimlaneBody=0;top=0;left=0;bottom=0;right=0;collapsible=0;dropTarget=0;fillColor=none;points=[[0,0.5],[1,0.5]];portConstraint=eastwest;" vertex="1" parent="YOguvEMQ_99iYduZ2-tK-214">
          <mxGeometry width="240" height="40" as="geometry" />
        </mxCell>
        <mxCell id="YOguvEMQ_99iYduZ2-tK-216" value="..." style="shape=partialRectangle;html=1;whiteSpace=wrap;connectable=0;fillColor=none;top=0;left=0;bottom=0;right=0;overflow=hidden;fontSize=12;" vertex="1" parent="YOguvEMQ_99iYduZ2-tK-215">
          <mxGeometry width="40" height="40" as="geometry">
            <mxRectangle width="40" height="40" as="alternateBounds" />
          </mxGeometry>
        </mxCell>
        <mxCell id="YOguvEMQ_99iYduZ2-tK-217" value="..." style="shape=partialRectangle;html=1;whiteSpace=wrap;connectable=0;fillColor=none;top=0;left=0;bottom=0;right=0;overflow=hidden;fontSize=12;" vertex="1" parent="YOguvEMQ_99iYduZ2-tK-215">
          <mxGeometry x="40" width="40" height="40" as="geometry">
            <mxRectangle width="40" height="40" as="alternateBounds" />
          </mxGeometry>
        </mxCell>
        <mxCell id="YOguvEMQ_99iYduZ2-tK-218" value="..." style="shape=partialRectangle;html=1;whiteSpace=wrap;connectable=0;fillColor=none;top=0;left=0;bottom=0;right=0;overflow=hidden;fontSize=12;" vertex="1" parent="YOguvEMQ_99iYduZ2-tK-215">
          <mxGeometry x="80" width="41" height="40" as="geometry">
            <mxRectangle width="41" height="40" as="alternateBounds" />
          </mxGeometry>
        </mxCell>
        <mxCell id="YOguvEMQ_99iYduZ2-tK-219" value="..." style="shape=partialRectangle;html=1;whiteSpace=wrap;connectable=0;fillColor=none;top=0;left=0;bottom=0;right=0;overflow=hidden;fontSize=12;" vertex="1" parent="YOguvEMQ_99iYduZ2-tK-215">
          <mxGeometry x="121" width="39" height="40" as="geometry">
            <mxRectangle width="39" height="40" as="alternateBounds" />
          </mxGeometry>
        </mxCell>
        <mxCell id="YOguvEMQ_99iYduZ2-tK-220" value="..." style="shape=partialRectangle;html=1;whiteSpace=wrap;connectable=0;fillColor=none;top=0;left=0;bottom=0;right=0;overflow=hidden;fontSize=12;" vertex="1" parent="YOguvEMQ_99iYduZ2-tK-215">
          <mxGeometry x="160" width="40" height="40" as="geometry">
            <mxRectangle width="40" height="40" as="alternateBounds" />
          </mxGeometry>
        </mxCell>
        <mxCell id="YOguvEMQ_99iYduZ2-tK-221" value="..." style="shape=partialRectangle;html=1;whiteSpace=wrap;connectable=0;fillColor=none;top=0;left=0;bottom=0;right=0;overflow=hidden;fontSize=12;" vertex="1" parent="YOguvEMQ_99iYduZ2-tK-215">
          <mxGeometry x="200" width="40" height="40" as="geometry">
            <mxRectangle width="40" height="40" as="alternateBounds" />
          </mxGeometry>
        </mxCell>
        <mxCell id="YOguvEMQ_99iYduZ2-tK-296" style="shape=tableRow;horizontal=0;startSize=0;swimlaneHead=0;swimlaneBody=0;top=0;left=0;bottom=0;right=0;collapsible=0;dropTarget=0;fillColor=none;points=[[0,0.5],[1,0.5]];portConstraint=eastwest;" vertex="1" parent="YOguvEMQ_99iYduZ2-tK-214">
          <mxGeometry y="40" width="240" height="40" as="geometry" />
        </mxCell>
        <mxCell id="YOguvEMQ_99iYduZ2-tK-297" value="..." style="shape=partialRectangle;html=1;whiteSpace=wrap;connectable=0;fillColor=none;top=0;left=0;bottom=0;right=0;overflow=hidden;fontSize=12;" vertex="1" parent="YOguvEMQ_99iYduZ2-tK-296">
          <mxGeometry width="40" height="40" as="geometry">
            <mxRectangle width="40" height="40" as="alternateBounds" />
          </mxGeometry>
        </mxCell>
        <mxCell id="YOguvEMQ_99iYduZ2-tK-298" value="..." style="shape=partialRectangle;html=1;whiteSpace=wrap;connectable=0;fillColor=none;top=0;left=0;bottom=0;right=0;overflow=hidden;fontSize=12;" vertex="1" parent="YOguvEMQ_99iYduZ2-tK-296">
          <mxGeometry x="40" width="40" height="40" as="geometry">
            <mxRectangle width="40" height="40" as="alternateBounds" />
          </mxGeometry>
        </mxCell>
        <mxCell id="YOguvEMQ_99iYduZ2-tK-299" value="..." style="shape=partialRectangle;html=1;whiteSpace=wrap;connectable=0;fillColor=none;top=0;left=0;bottom=0;right=0;overflow=hidden;fontSize=12;" vertex="1" parent="YOguvEMQ_99iYduZ2-tK-296">
          <mxGeometry x="80" width="41" height="40" as="geometry">
            <mxRectangle width="41" height="40" as="alternateBounds" />
          </mxGeometry>
        </mxCell>
        <mxCell id="YOguvEMQ_99iYduZ2-tK-300" value="..." style="shape=partialRectangle;html=1;whiteSpace=wrap;connectable=0;fillColor=none;top=0;left=0;bottom=0;right=0;overflow=hidden;fontSize=12;" vertex="1" parent="YOguvEMQ_99iYduZ2-tK-296">
          <mxGeometry x="121" width="39" height="40" as="geometry">
            <mxRectangle width="39" height="40" as="alternateBounds" />
          </mxGeometry>
        </mxCell>
        <mxCell id="YOguvEMQ_99iYduZ2-tK-301" value="..." style="shape=partialRectangle;html=1;whiteSpace=wrap;connectable=0;fillColor=none;top=0;left=0;bottom=0;right=0;overflow=hidden;fontSize=12;" vertex="1" parent="YOguvEMQ_99iYduZ2-tK-296">
          <mxGeometry x="160" width="40" height="40" as="geometry">
            <mxRectangle width="40" height="40" as="alternateBounds" />
          </mxGeometry>
        </mxCell>
        <mxCell id="YOguvEMQ_99iYduZ2-tK-302" value="..." style="shape=partialRectangle;html=1;whiteSpace=wrap;connectable=0;fillColor=none;top=0;left=0;bottom=0;right=0;overflow=hidden;fontSize=12;" vertex="1" parent="YOguvEMQ_99iYduZ2-tK-296">
          <mxGeometry x="200" width="40" height="40" as="geometry">
            <mxRectangle width="40" height="40" as="alternateBounds" />
          </mxGeometry>
        </mxCell>
        <mxCell id="YOguvEMQ_99iYduZ2-tK-289" style="shape=tableRow;horizontal=0;startSize=0;swimlaneHead=0;swimlaneBody=0;top=0;left=0;bottom=0;right=0;collapsible=0;dropTarget=0;fillColor=none;points=[[0,0.5],[1,0.5]];portConstraint=eastwest;" vertex="1" parent="YOguvEMQ_99iYduZ2-tK-214">
          <mxGeometry y="80" width="240" height="40" as="geometry" />
        </mxCell>
        <mxCell id="YOguvEMQ_99iYduZ2-tK-290" value="..." style="shape=partialRectangle;html=1;whiteSpace=wrap;connectable=0;fillColor=none;top=0;left=0;bottom=0;right=0;overflow=hidden;fontSize=12;" vertex="1" parent="YOguvEMQ_99iYduZ2-tK-289">
          <mxGeometry width="40" height="40" as="geometry">
            <mxRectangle width="40" height="40" as="alternateBounds" />
          </mxGeometry>
        </mxCell>
        <mxCell id="YOguvEMQ_99iYduZ2-tK-291" value="..." style="shape=partialRectangle;html=1;whiteSpace=wrap;connectable=0;fillColor=none;top=0;left=0;bottom=0;right=0;overflow=hidden;fontSize=12;" vertex="1" parent="YOguvEMQ_99iYduZ2-tK-289">
          <mxGeometry x="40" width="40" height="40" as="geometry">
            <mxRectangle width="40" height="40" as="alternateBounds" />
          </mxGeometry>
        </mxCell>
        <mxCell id="YOguvEMQ_99iYduZ2-tK-292" value="..." style="shape=partialRectangle;html=1;whiteSpace=wrap;connectable=0;fillColor=none;top=0;left=0;bottom=0;right=0;overflow=hidden;fontSize=12;" vertex="1" parent="YOguvEMQ_99iYduZ2-tK-289">
          <mxGeometry x="80" width="41" height="40" as="geometry">
            <mxRectangle width="41" height="40" as="alternateBounds" />
          </mxGeometry>
        </mxCell>
        <mxCell id="YOguvEMQ_99iYduZ2-tK-293" value="..." style="shape=partialRectangle;html=1;whiteSpace=wrap;connectable=0;fillColor=none;top=0;left=0;bottom=0;right=0;overflow=hidden;fontSize=12;" vertex="1" parent="YOguvEMQ_99iYduZ2-tK-289">
          <mxGeometry x="121" width="39" height="40" as="geometry">
            <mxRectangle width="39" height="40" as="alternateBounds" />
          </mxGeometry>
        </mxCell>
        <mxCell id="YOguvEMQ_99iYduZ2-tK-294" value="..." style="shape=partialRectangle;html=1;whiteSpace=wrap;connectable=0;fillColor=none;top=0;left=0;bottom=0;right=0;overflow=hidden;fontSize=12;" vertex="1" parent="YOguvEMQ_99iYduZ2-tK-289">
          <mxGeometry x="160" width="40" height="40" as="geometry">
            <mxRectangle width="40" height="40" as="alternateBounds" />
          </mxGeometry>
        </mxCell>
        <mxCell id="YOguvEMQ_99iYduZ2-tK-295" value="..." style="shape=partialRectangle;html=1;whiteSpace=wrap;connectable=0;fillColor=none;top=0;left=0;bottom=0;right=0;overflow=hidden;fontSize=12;" vertex="1" parent="YOguvEMQ_99iYduZ2-tK-289">
          <mxGeometry x="200" width="40" height="40" as="geometry">
            <mxRectangle width="40" height="40" as="alternateBounds" />
          </mxGeometry>
        </mxCell>
        <mxCell id="YOguvEMQ_99iYduZ2-tK-222" value="" style="shape=table;html=1;whiteSpace=wrap;startSize=0;container=1;collapsible=0;childLayout=tableLayout;columnLines=0;rowLines=0;fillColor=#d5e8d4;strokeColor=#82b366;" vertex="1" parent="1">
          <mxGeometry x="520" y="320" width="240" height="80" as="geometry" />
        </mxCell>
        <mxCell id="YOguvEMQ_99iYduZ2-tK-223" style="shape=tableRow;horizontal=0;startSize=0;swimlaneHead=0;swimlaneBody=0;top=0;left=0;bottom=0;right=0;collapsible=0;dropTarget=0;fillColor=none;points=[[0,0.5],[1,0.5]];portConstraint=eastwest;" vertex="1" parent="YOguvEMQ_99iYduZ2-tK-222">
          <mxGeometry width="240" height="40" as="geometry" />
        </mxCell>
        <mxCell id="YOguvEMQ_99iYduZ2-tK-224" value="..." style="shape=partialRectangle;html=1;whiteSpace=wrap;connectable=0;fillColor=none;top=0;left=0;bottom=0;right=0;overflow=hidden;fontSize=12;" vertex="1" parent="YOguvEMQ_99iYduZ2-tK-223">
          <mxGeometry width="40" height="40" as="geometry">
            <mxRectangle width="40" height="40" as="alternateBounds" />
          </mxGeometry>
        </mxCell>
        <mxCell id="YOguvEMQ_99iYduZ2-tK-225" value="..." style="shape=partialRectangle;html=1;whiteSpace=wrap;connectable=0;fillColor=none;top=0;left=0;bottom=0;right=0;overflow=hidden;fontSize=12;" vertex="1" parent="YOguvEMQ_99iYduZ2-tK-223">
          <mxGeometry x="40" width="40" height="40" as="geometry">
            <mxRectangle width="40" height="40" as="alternateBounds" />
          </mxGeometry>
        </mxCell>
        <mxCell id="YOguvEMQ_99iYduZ2-tK-226" value="..." style="shape=partialRectangle;html=1;whiteSpace=wrap;connectable=0;fillColor=none;top=0;left=0;bottom=0;right=0;overflow=hidden;fontSize=12;" vertex="1" parent="YOguvEMQ_99iYduZ2-tK-223">
          <mxGeometry x="80" width="41" height="40" as="geometry">
            <mxRectangle width="41" height="40" as="alternateBounds" />
          </mxGeometry>
        </mxCell>
        <mxCell id="YOguvEMQ_99iYduZ2-tK-227" value="..." style="shape=partialRectangle;html=1;whiteSpace=wrap;connectable=0;fillColor=none;top=0;left=0;bottom=0;right=0;overflow=hidden;fontSize=12;" vertex="1" parent="YOguvEMQ_99iYduZ2-tK-223">
          <mxGeometry x="121" width="39" height="40" as="geometry">
            <mxRectangle width="39" height="40" as="alternateBounds" />
          </mxGeometry>
        </mxCell>
        <mxCell id="YOguvEMQ_99iYduZ2-tK-228" value="..." style="shape=partialRectangle;html=1;whiteSpace=wrap;connectable=0;fillColor=none;top=0;left=0;bottom=0;right=0;overflow=hidden;fontSize=12;" vertex="1" parent="YOguvEMQ_99iYduZ2-tK-223">
          <mxGeometry x="160" width="40" height="40" as="geometry">
            <mxRectangle width="40" height="40" as="alternateBounds" />
          </mxGeometry>
        </mxCell>
        <mxCell id="YOguvEMQ_99iYduZ2-tK-229" value="..." style="shape=partialRectangle;html=1;whiteSpace=wrap;connectable=0;fillColor=none;top=0;left=0;bottom=0;right=0;overflow=hidden;fontSize=12;" vertex="1" parent="YOguvEMQ_99iYduZ2-tK-223">
          <mxGeometry x="200" width="40" height="40" as="geometry">
            <mxRectangle width="40" height="40" as="alternateBounds" />
          </mxGeometry>
        </mxCell>
        <mxCell id="YOguvEMQ_99iYduZ2-tK-304" style="shape=tableRow;horizontal=0;startSize=0;swimlaneHead=0;swimlaneBody=0;top=0;left=0;bottom=0;right=0;collapsible=0;dropTarget=0;fillColor=none;points=[[0,0.5],[1,0.5]];portConstraint=eastwest;" vertex="1" parent="YOguvEMQ_99iYduZ2-tK-222">
          <mxGeometry y="40" width="240" height="40" as="geometry" />
        </mxCell>
        <mxCell id="YOguvEMQ_99iYduZ2-tK-305" value="..." style="shape=partialRectangle;html=1;whiteSpace=wrap;connectable=0;fillColor=none;top=0;left=0;bottom=0;right=0;overflow=hidden;fontSize=12;" vertex="1" parent="YOguvEMQ_99iYduZ2-tK-304">
          <mxGeometry width="40" height="40" as="geometry">
            <mxRectangle width="40" height="40" as="alternateBounds" />
          </mxGeometry>
        </mxCell>
        <mxCell id="YOguvEMQ_99iYduZ2-tK-306" value="..." style="shape=partialRectangle;html=1;whiteSpace=wrap;connectable=0;fillColor=none;top=0;left=0;bottom=0;right=0;overflow=hidden;fontSize=12;" vertex="1" parent="YOguvEMQ_99iYduZ2-tK-304">
          <mxGeometry x="40" width="40" height="40" as="geometry">
            <mxRectangle width="40" height="40" as="alternateBounds" />
          </mxGeometry>
        </mxCell>
        <mxCell id="YOguvEMQ_99iYduZ2-tK-307" value="..." style="shape=partialRectangle;html=1;whiteSpace=wrap;connectable=0;fillColor=none;top=0;left=0;bottom=0;right=0;overflow=hidden;fontSize=12;" vertex="1" parent="YOguvEMQ_99iYduZ2-tK-304">
          <mxGeometry x="80" width="41" height="40" as="geometry">
            <mxRectangle width="41" height="40" as="alternateBounds" />
          </mxGeometry>
        </mxCell>
        <mxCell id="YOguvEMQ_99iYduZ2-tK-308" value="..." style="shape=partialRectangle;html=1;whiteSpace=wrap;connectable=0;fillColor=none;top=0;left=0;bottom=0;right=0;overflow=hidden;fontSize=12;" vertex="1" parent="YOguvEMQ_99iYduZ2-tK-304">
          <mxGeometry x="121" width="39" height="40" as="geometry">
            <mxRectangle width="39" height="40" as="alternateBounds" />
          </mxGeometry>
        </mxCell>
        <mxCell id="YOguvEMQ_99iYduZ2-tK-309" value="..." style="shape=partialRectangle;html=1;whiteSpace=wrap;connectable=0;fillColor=none;top=0;left=0;bottom=0;right=0;overflow=hidden;fontSize=12;" vertex="1" parent="YOguvEMQ_99iYduZ2-tK-304">
          <mxGeometry x="160" width="40" height="40" as="geometry">
            <mxRectangle width="40" height="40" as="alternateBounds" />
          </mxGeometry>
        </mxCell>
        <mxCell id="YOguvEMQ_99iYduZ2-tK-310" value="..." style="shape=partialRectangle;html=1;whiteSpace=wrap;connectable=0;fillColor=none;top=0;left=0;bottom=0;right=0;overflow=hidden;fontSize=12;" vertex="1" parent="YOguvEMQ_99iYduZ2-tK-304">
          <mxGeometry x="200" width="40" height="40" as="geometry">
            <mxRectangle width="40" height="40" as="alternateBounds" />
          </mxGeometry>
        </mxCell>
        <mxCell id="YOguvEMQ_99iYduZ2-tK-230" value="" style="shape=table;html=1;whiteSpace=wrap;startSize=0;container=1;collapsible=0;childLayout=tableLayout;columnLines=0;rowLines=0;fillColor=#d5e8d4;strokeColor=#82b366;" vertex="1" parent="1">
          <mxGeometry x="520" y="360" width="240" height="40" as="geometry" />
        </mxCell>
        <mxCell id="YOguvEMQ_99iYduZ2-tK-231" style="shape=tableRow;horizontal=0;startSize=0;swimlaneHead=0;swimlaneBody=0;top=0;left=0;bottom=0;right=0;collapsible=0;dropTarget=0;fillColor=none;points=[[0,0.5],[1,0.5]];portConstraint=eastwest;" vertex="1" parent="YOguvEMQ_99iYduZ2-tK-230">
          <mxGeometry width="240" height="40" as="geometry" />
        </mxCell>
        <mxCell id="YOguvEMQ_99iYduZ2-tK-232" value="..." style="shape=partialRectangle;html=1;whiteSpace=wrap;connectable=0;fillColor=none;top=0;left=0;bottom=0;right=0;overflow=hidden;fontSize=12;" vertex="1" parent="YOguvEMQ_99iYduZ2-tK-231">
          <mxGeometry width="40" height="40" as="geometry">
            <mxRectangle width="40" height="40" as="alternateBounds" />
          </mxGeometry>
        </mxCell>
        <mxCell id="YOguvEMQ_99iYduZ2-tK-233" value="..." style="shape=partialRectangle;html=1;whiteSpace=wrap;connectable=0;fillColor=none;top=0;left=0;bottom=0;right=0;overflow=hidden;fontSize=12;" vertex="1" parent="YOguvEMQ_99iYduZ2-tK-231">
          <mxGeometry x="40" width="40" height="40" as="geometry">
            <mxRectangle width="40" height="40" as="alternateBounds" />
          </mxGeometry>
        </mxCell>
        <mxCell id="YOguvEMQ_99iYduZ2-tK-234" value="..." style="shape=partialRectangle;html=1;whiteSpace=wrap;connectable=0;fillColor=none;top=0;left=0;bottom=0;right=0;overflow=hidden;fontSize=12;" vertex="1" parent="YOguvEMQ_99iYduZ2-tK-231">
          <mxGeometry x="80" width="41" height="40" as="geometry">
            <mxRectangle width="41" height="40" as="alternateBounds" />
          </mxGeometry>
        </mxCell>
        <mxCell id="YOguvEMQ_99iYduZ2-tK-235" value="..." style="shape=partialRectangle;html=1;whiteSpace=wrap;connectable=0;fillColor=none;top=0;left=0;bottom=0;right=0;overflow=hidden;fontSize=12;" vertex="1" parent="YOguvEMQ_99iYduZ2-tK-231">
          <mxGeometry x="121" width="39" height="40" as="geometry">
            <mxRectangle width="39" height="40" as="alternateBounds" />
          </mxGeometry>
        </mxCell>
        <mxCell id="YOguvEMQ_99iYduZ2-tK-236" value="..." style="shape=partialRectangle;html=1;whiteSpace=wrap;connectable=0;fillColor=none;top=0;left=0;bottom=0;right=0;overflow=hidden;fontSize=12;" vertex="1" parent="YOguvEMQ_99iYduZ2-tK-231">
          <mxGeometry x="160" width="40" height="40" as="geometry">
            <mxRectangle width="40" height="40" as="alternateBounds" />
          </mxGeometry>
        </mxCell>
        <mxCell id="YOguvEMQ_99iYduZ2-tK-237" value="..." style="shape=partialRectangle;html=1;whiteSpace=wrap;connectable=0;fillColor=none;top=0;left=0;bottom=0;right=0;overflow=hidden;fontSize=12;" vertex="1" parent="YOguvEMQ_99iYduZ2-tK-231">
          <mxGeometry x="200" width="40" height="40" as="geometry">
            <mxRectangle width="40" height="40" as="alternateBounds" />
          </mxGeometry>
        </mxCell>
        <mxCell id="YOguvEMQ_99iYduZ2-tK-313" style="edgeStyle=orthogonalEdgeStyle;rounded=0;orthogonalLoop=1;jettySize=auto;html=1;fontSize=12;shape=link;" edge="1" parent="1" source="YOguvEMQ_99iYduZ2-tK-238">
          <mxGeometry relative="1" as="geometry">
            <mxPoint x="800" y="420" as="targetPoint" />
          </mxGeometry>
        </mxCell>
        <mxCell id="YOguvEMQ_99iYduZ2-tK-238" value="" style="shape=table;html=1;whiteSpace=wrap;startSize=0;container=1;collapsible=0;childLayout=tableLayout;columnLines=0;rowLines=0;fillColor=#d5e8d4;strokeColor=#82b366;" vertex="1" parent="1">
          <mxGeometry x="520" y="400" width="240" height="40" as="geometry" />
        </mxCell>
        <mxCell id="YOguvEMQ_99iYduZ2-tK-239" style="shape=tableRow;horizontal=0;startSize=0;swimlaneHead=0;swimlaneBody=0;top=0;left=0;bottom=0;right=0;collapsible=0;dropTarget=0;fillColor=none;points=[[0,0.5],[1,0.5]];portConstraint=eastwest;" vertex="1" parent="YOguvEMQ_99iYduZ2-tK-238">
          <mxGeometry width="240" height="40" as="geometry" />
        </mxCell>
        <mxCell id="YOguvEMQ_99iYduZ2-tK-240" value="..." style="shape=partialRectangle;html=1;whiteSpace=wrap;connectable=0;fillColor=none;top=0;left=0;bottom=0;right=0;overflow=hidden;fontSize=12;" vertex="1" parent="YOguvEMQ_99iYduZ2-tK-239">
          <mxGeometry width="40" height="40" as="geometry">
            <mxRectangle width="40" height="40" as="alternateBounds" />
          </mxGeometry>
        </mxCell>
        <mxCell id="YOguvEMQ_99iYduZ2-tK-241" value="..." style="shape=partialRectangle;html=1;whiteSpace=wrap;connectable=0;fillColor=none;top=0;left=0;bottom=0;right=0;overflow=hidden;fontSize=12;" vertex="1" parent="YOguvEMQ_99iYduZ2-tK-239">
          <mxGeometry x="40" width="40" height="40" as="geometry">
            <mxRectangle width="40" height="40" as="alternateBounds" />
          </mxGeometry>
        </mxCell>
        <mxCell id="YOguvEMQ_99iYduZ2-tK-242" value="..." style="shape=partialRectangle;html=1;whiteSpace=wrap;connectable=0;fillColor=none;top=0;left=0;bottom=0;right=0;overflow=hidden;fontSize=12;" vertex="1" parent="YOguvEMQ_99iYduZ2-tK-239">
          <mxGeometry x="80" width="41" height="40" as="geometry">
            <mxRectangle width="41" height="40" as="alternateBounds" />
          </mxGeometry>
        </mxCell>
        <mxCell id="YOguvEMQ_99iYduZ2-tK-243" value="..." style="shape=partialRectangle;html=1;whiteSpace=wrap;connectable=0;fillColor=none;top=0;left=0;bottom=0;right=0;overflow=hidden;fontSize=12;" vertex="1" parent="YOguvEMQ_99iYduZ2-tK-239">
          <mxGeometry x="121" width="39" height="40" as="geometry">
            <mxRectangle width="39" height="40" as="alternateBounds" />
          </mxGeometry>
        </mxCell>
        <mxCell id="YOguvEMQ_99iYduZ2-tK-244" value="..." style="shape=partialRectangle;html=1;whiteSpace=wrap;connectable=0;fillColor=none;top=0;left=0;bottom=0;right=0;overflow=hidden;fontSize=12;" vertex="1" parent="YOguvEMQ_99iYduZ2-tK-239">
          <mxGeometry x="160" width="40" height="40" as="geometry">
            <mxRectangle width="40" height="40" as="alternateBounds" />
          </mxGeometry>
        </mxCell>
        <mxCell id="YOguvEMQ_99iYduZ2-tK-245" value="..." style="shape=partialRectangle;html=1;whiteSpace=wrap;connectable=0;fillColor=none;top=0;left=0;bottom=0;right=0;overflow=hidden;fontSize=12;" vertex="1" parent="YOguvEMQ_99iYduZ2-tK-239">
          <mxGeometry x="200" width="40" height="40" as="geometry">
            <mxRectangle width="40" height="40" as="alternateBounds" />
          </mxGeometry>
        </mxCell>
        <mxCell id="YOguvEMQ_99iYduZ2-tK-246" value="" style="shape=table;html=1;whiteSpace=wrap;startSize=0;container=1;collapsible=0;childLayout=tableLayout;columnLines=0;rowLines=0;fillColor=#f8cecc;strokeColor=#b85450;" vertex="1" parent="1">
          <mxGeometry x="520" y="120" width="240" height="40" as="geometry" />
        </mxCell>
        <mxCell id="YOguvEMQ_99iYduZ2-tK-247" style="shape=tableRow;horizontal=0;startSize=0;swimlaneHead=0;swimlaneBody=0;top=0;left=0;bottom=0;right=0;collapsible=0;dropTarget=0;fillColor=none;points=[[0,0.5],[1,0.5]];portConstraint=eastwest;" vertex="1" parent="YOguvEMQ_99iYduZ2-tK-246">
          <mxGeometry width="240" height="40" as="geometry" />
        </mxCell>
        <mxCell id="YOguvEMQ_99iYduZ2-tK-248" value="..." style="shape=partialRectangle;html=1;whiteSpace=wrap;connectable=0;fillColor=none;top=0;left=0;bottom=0;right=0;overflow=hidden;fontSize=12;" vertex="1" parent="YOguvEMQ_99iYduZ2-tK-247">
          <mxGeometry width="40" height="40" as="geometry">
            <mxRectangle width="40" height="40" as="alternateBounds" />
          </mxGeometry>
        </mxCell>
        <mxCell id="YOguvEMQ_99iYduZ2-tK-249" value="..." style="shape=partialRectangle;html=1;whiteSpace=wrap;connectable=0;fillColor=none;top=0;left=0;bottom=0;right=0;overflow=hidden;fontSize=12;" vertex="1" parent="YOguvEMQ_99iYduZ2-tK-247">
          <mxGeometry x="40" width="40" height="40" as="geometry">
            <mxRectangle width="40" height="40" as="alternateBounds" />
          </mxGeometry>
        </mxCell>
        <mxCell id="YOguvEMQ_99iYduZ2-tK-250" value="..." style="shape=partialRectangle;html=1;whiteSpace=wrap;connectable=0;fillColor=none;top=0;left=0;bottom=0;right=0;overflow=hidden;fontSize=12;" vertex="1" parent="YOguvEMQ_99iYduZ2-tK-247">
          <mxGeometry x="80" width="41" height="40" as="geometry">
            <mxRectangle width="41" height="40" as="alternateBounds" />
          </mxGeometry>
        </mxCell>
        <mxCell id="YOguvEMQ_99iYduZ2-tK-251" value="..." style="shape=partialRectangle;html=1;whiteSpace=wrap;connectable=0;fillColor=none;top=0;left=0;bottom=0;right=0;overflow=hidden;fontSize=12;" vertex="1" parent="YOguvEMQ_99iYduZ2-tK-247">
          <mxGeometry x="121" width="39" height="40" as="geometry">
            <mxRectangle width="39" height="40" as="alternateBounds" />
          </mxGeometry>
        </mxCell>
        <mxCell id="YOguvEMQ_99iYduZ2-tK-252" value="..." style="shape=partialRectangle;html=1;whiteSpace=wrap;connectable=0;fillColor=none;top=0;left=0;bottom=0;right=0;overflow=hidden;fontSize=12;" vertex="1" parent="YOguvEMQ_99iYduZ2-tK-247">
          <mxGeometry x="160" width="40" height="40" as="geometry">
            <mxRectangle width="40" height="40" as="alternateBounds" />
          </mxGeometry>
        </mxCell>
        <mxCell id="YOguvEMQ_99iYduZ2-tK-253" value="..." style="shape=partialRectangle;html=1;whiteSpace=wrap;connectable=0;fillColor=none;top=0;left=0;bottom=0;right=0;overflow=hidden;fontSize=12;" vertex="1" parent="YOguvEMQ_99iYduZ2-tK-247">
          <mxGeometry x="200" width="40" height="40" as="geometry">
            <mxRectangle width="40" height="40" as="alternateBounds" />
          </mxGeometry>
        </mxCell>
        <mxCell id="YOguvEMQ_99iYduZ2-tK-262" value="" style="shape=table;html=1;whiteSpace=wrap;startSize=0;container=1;collapsible=0;childLayout=tableLayout;columnLines=0;rowLines=0;fillColor=#f8cecc;strokeColor=#b85450;" vertex="1" parent="1">
          <mxGeometry x="520" y="160" width="240" height="40" as="geometry" />
        </mxCell>
        <mxCell id="YOguvEMQ_99iYduZ2-tK-263" style="shape=tableRow;horizontal=0;startSize=0;swimlaneHead=0;swimlaneBody=0;top=0;left=0;bottom=0;right=0;collapsible=0;dropTarget=0;fillColor=none;points=[[0,0.5],[1,0.5]];portConstraint=eastwest;" vertex="1" parent="YOguvEMQ_99iYduZ2-tK-262">
          <mxGeometry width="240" height="40" as="geometry" />
        </mxCell>
        <mxCell id="YOguvEMQ_99iYduZ2-tK-264" value="..." style="shape=partialRectangle;html=1;whiteSpace=wrap;connectable=0;fillColor=none;top=0;left=0;bottom=0;right=0;overflow=hidden;fontSize=12;" vertex="1" parent="YOguvEMQ_99iYduZ2-tK-263">
          <mxGeometry width="40" height="40" as="geometry">
            <mxRectangle width="40" height="40" as="alternateBounds" />
          </mxGeometry>
        </mxCell>
        <mxCell id="YOguvEMQ_99iYduZ2-tK-265" value="..." style="shape=partialRectangle;html=1;whiteSpace=wrap;connectable=0;fillColor=none;top=0;left=0;bottom=0;right=0;overflow=hidden;fontSize=12;" vertex="1" parent="YOguvEMQ_99iYduZ2-tK-263">
          <mxGeometry x="40" width="40" height="40" as="geometry">
            <mxRectangle width="40" height="40" as="alternateBounds" />
          </mxGeometry>
        </mxCell>
        <mxCell id="YOguvEMQ_99iYduZ2-tK-266" value="..." style="shape=partialRectangle;html=1;whiteSpace=wrap;connectable=0;fillColor=none;top=0;left=0;bottom=0;right=0;overflow=hidden;fontSize=12;" vertex="1" parent="YOguvEMQ_99iYduZ2-tK-263">
          <mxGeometry x="80" width="41" height="40" as="geometry">
            <mxRectangle width="41" height="40" as="alternateBounds" />
          </mxGeometry>
        </mxCell>
        <mxCell id="YOguvEMQ_99iYduZ2-tK-267" value="..." style="shape=partialRectangle;html=1;whiteSpace=wrap;connectable=0;fillColor=none;top=0;left=0;bottom=0;right=0;overflow=hidden;fontSize=12;" vertex="1" parent="YOguvEMQ_99iYduZ2-tK-263">
          <mxGeometry x="121" width="39" height="40" as="geometry">
            <mxRectangle width="39" height="40" as="alternateBounds" />
          </mxGeometry>
        </mxCell>
        <mxCell id="YOguvEMQ_99iYduZ2-tK-268" value="..." style="shape=partialRectangle;html=1;whiteSpace=wrap;connectable=0;fillColor=none;top=0;left=0;bottom=0;right=0;overflow=hidden;fontSize=12;" vertex="1" parent="YOguvEMQ_99iYduZ2-tK-263">
          <mxGeometry x="160" width="40" height="40" as="geometry">
            <mxRectangle width="40" height="40" as="alternateBounds" />
          </mxGeometry>
        </mxCell>
        <mxCell id="YOguvEMQ_99iYduZ2-tK-269" value="..." style="shape=partialRectangle;html=1;whiteSpace=wrap;connectable=0;fillColor=none;top=0;left=0;bottom=0;right=0;overflow=hidden;fontSize=12;" vertex="1" parent="YOguvEMQ_99iYduZ2-tK-263">
          <mxGeometry x="200" width="40" height="40" as="geometry">
            <mxRectangle width="40" height="40" as="alternateBounds" />
          </mxGeometry>
        </mxCell>
        <mxCell id="YOguvEMQ_99iYduZ2-tK-270" value="" style="shape=table;html=1;whiteSpace=wrap;startSize=0;container=1;collapsible=0;childLayout=tableLayout;columnLines=0;rowLines=0;fillColor=#f8cecc;strokeColor=#b85450;" vertex="1" parent="1">
          <mxGeometry x="520" y="240" width="240" height="40" as="geometry" />
        </mxCell>
        <mxCell id="YOguvEMQ_99iYduZ2-tK-271" style="shape=tableRow;horizontal=0;startSize=0;swimlaneHead=0;swimlaneBody=0;top=0;left=0;bottom=0;right=0;collapsible=0;dropTarget=0;fillColor=none;points=[[0,0.5],[1,0.5]];portConstraint=eastwest;" vertex="1" parent="YOguvEMQ_99iYduZ2-tK-270">
          <mxGeometry width="240" height="40" as="geometry" />
        </mxCell>
        <mxCell id="YOguvEMQ_99iYduZ2-tK-272" value="..." style="shape=partialRectangle;html=1;whiteSpace=wrap;connectable=0;fillColor=none;top=0;left=0;bottom=0;right=0;overflow=hidden;fontSize=12;" vertex="1" parent="YOguvEMQ_99iYduZ2-tK-271">
          <mxGeometry width="40" height="40" as="geometry">
            <mxRectangle width="40" height="40" as="alternateBounds" />
          </mxGeometry>
        </mxCell>
        <mxCell id="YOguvEMQ_99iYduZ2-tK-273" value="..." style="shape=partialRectangle;html=1;whiteSpace=wrap;connectable=0;fillColor=none;top=0;left=0;bottom=0;right=0;overflow=hidden;fontSize=12;" vertex="1" parent="YOguvEMQ_99iYduZ2-tK-271">
          <mxGeometry x="40" width="40" height="40" as="geometry">
            <mxRectangle width="40" height="40" as="alternateBounds" />
          </mxGeometry>
        </mxCell>
        <mxCell id="YOguvEMQ_99iYduZ2-tK-274" value="..." style="shape=partialRectangle;html=1;whiteSpace=wrap;connectable=0;fillColor=none;top=0;left=0;bottom=0;right=0;overflow=hidden;fontSize=12;" vertex="1" parent="YOguvEMQ_99iYduZ2-tK-271">
          <mxGeometry x="80" width="41" height="40" as="geometry">
            <mxRectangle width="41" height="40" as="alternateBounds" />
          </mxGeometry>
        </mxCell>
        <mxCell id="YOguvEMQ_99iYduZ2-tK-275" value="..." style="shape=partialRectangle;html=1;whiteSpace=wrap;connectable=0;fillColor=none;top=0;left=0;bottom=0;right=0;overflow=hidden;fontSize=12;" vertex="1" parent="YOguvEMQ_99iYduZ2-tK-271">
          <mxGeometry x="121" width="39" height="40" as="geometry">
            <mxRectangle width="39" height="40" as="alternateBounds" />
          </mxGeometry>
        </mxCell>
        <mxCell id="YOguvEMQ_99iYduZ2-tK-276" value="..." style="shape=partialRectangle;html=1;whiteSpace=wrap;connectable=0;fillColor=none;top=0;left=0;bottom=0;right=0;overflow=hidden;fontSize=12;" vertex="1" parent="YOguvEMQ_99iYduZ2-tK-271">
          <mxGeometry x="160" width="40" height="40" as="geometry">
            <mxRectangle width="40" height="40" as="alternateBounds" />
          </mxGeometry>
        </mxCell>
        <mxCell id="YOguvEMQ_99iYduZ2-tK-277" value="..." style="shape=partialRectangle;html=1;whiteSpace=wrap;connectable=0;fillColor=none;top=0;left=0;bottom=0;right=0;overflow=hidden;fontSize=12;" vertex="1" parent="YOguvEMQ_99iYduZ2-tK-271">
          <mxGeometry x="200" width="40" height="40" as="geometry">
            <mxRectangle width="40" height="40" as="alternateBounds" />
          </mxGeometry>
        </mxCell>
        <mxCell id="YOguvEMQ_99iYduZ2-tK-278" value="" style="shape=table;html=1;whiteSpace=wrap;startSize=0;container=1;collapsible=0;childLayout=tableLayout;columnLines=0;rowLines=0;fillColor=#f8cecc;strokeColor=#b85450;" vertex="1" parent="1">
          <mxGeometry x="520" y="280" width="240" height="40" as="geometry" />
        </mxCell>
        <mxCell id="YOguvEMQ_99iYduZ2-tK-279" style="shape=tableRow;horizontal=0;startSize=0;swimlaneHead=0;swimlaneBody=0;top=0;left=0;bottom=0;right=0;collapsible=0;dropTarget=0;fillColor=none;points=[[0,0.5],[1,0.5]];portConstraint=eastwest;" vertex="1" parent="YOguvEMQ_99iYduZ2-tK-278">
          <mxGeometry width="240" height="40" as="geometry" />
        </mxCell>
        <mxCell id="YOguvEMQ_99iYduZ2-tK-280" value="..." style="shape=partialRectangle;html=1;whiteSpace=wrap;connectable=0;fillColor=none;top=0;left=0;bottom=0;right=0;overflow=hidden;fontSize=12;" vertex="1" parent="YOguvEMQ_99iYduZ2-tK-279">
          <mxGeometry width="40" height="40" as="geometry">
            <mxRectangle width="40" height="40" as="alternateBounds" />
          </mxGeometry>
        </mxCell>
        <mxCell id="YOguvEMQ_99iYduZ2-tK-281" value="..." style="shape=partialRectangle;html=1;whiteSpace=wrap;connectable=0;fillColor=none;top=0;left=0;bottom=0;right=0;overflow=hidden;fontSize=12;" vertex="1" parent="YOguvEMQ_99iYduZ2-tK-279">
          <mxGeometry x="40" width="40" height="40" as="geometry">
            <mxRectangle width="40" height="40" as="alternateBounds" />
          </mxGeometry>
        </mxCell>
        <mxCell id="YOguvEMQ_99iYduZ2-tK-282" value="..." style="shape=partialRectangle;html=1;whiteSpace=wrap;connectable=0;fillColor=none;top=0;left=0;bottom=0;right=0;overflow=hidden;fontSize=12;" vertex="1" parent="YOguvEMQ_99iYduZ2-tK-279">
          <mxGeometry x="80" width="41" height="40" as="geometry">
            <mxRectangle width="41" height="40" as="alternateBounds" />
          </mxGeometry>
        </mxCell>
        <mxCell id="YOguvEMQ_99iYduZ2-tK-283" value="..." style="shape=partialRectangle;html=1;whiteSpace=wrap;connectable=0;fillColor=none;top=0;left=0;bottom=0;right=0;overflow=hidden;fontSize=12;" vertex="1" parent="YOguvEMQ_99iYduZ2-tK-279">
          <mxGeometry x="121" width="39" height="40" as="geometry">
            <mxRectangle width="39" height="40" as="alternateBounds" />
          </mxGeometry>
        </mxCell>
        <mxCell id="YOguvEMQ_99iYduZ2-tK-284" value="..." style="shape=partialRectangle;html=1;whiteSpace=wrap;connectable=0;fillColor=none;top=0;left=0;bottom=0;right=0;overflow=hidden;fontSize=12;" vertex="1" parent="YOguvEMQ_99iYduZ2-tK-279">
          <mxGeometry x="160" width="40" height="40" as="geometry">
            <mxRectangle width="40" height="40" as="alternateBounds" />
          </mxGeometry>
        </mxCell>
        <mxCell id="YOguvEMQ_99iYduZ2-tK-285" value="..." style="shape=partialRectangle;html=1;whiteSpace=wrap;connectable=0;fillColor=none;top=0;left=0;bottom=0;right=0;overflow=hidden;fontSize=12;" vertex="1" parent="YOguvEMQ_99iYduZ2-tK-279">
          <mxGeometry x="200" width="40" height="40" as="geometry">
            <mxRectangle width="40" height="40" as="alternateBounds" />
          </mxGeometry>
        </mxCell>
        <mxCell id="YOguvEMQ_99iYduZ2-tK-288" value="&lt;p style=&quot;&quot;&gt;&lt;font style=&quot;font-size: 12px;&quot;&gt;&lt;b&gt;Ground Truth Data&lt;/b&gt;&lt;br&gt;&lt;/font&gt;&lt;/p&gt;&lt;p style=&quot;&quot;&gt;1) &lt;b&gt;Is &lt;/b&gt;a perfect &lt;b&gt;superset of the columns&lt;/b&gt; (features) available in TA4 data.&lt;/p&gt;&lt;p&gt;&lt;span style=&quot;white-space: pre;&quot;&gt;	The simulation platform &lt;/span&gt;generates  additional &quot;enriched&quot; features not available in TA4 data (i.e. mouse-over times, view times, link clicks, likes, etc.). This data is useful for testing and evaluating the how individual&#39;s characteristics (demographic and psychographic), message attributes, and environmental factors (at the platform level) influence consumer behavior. It provides information unavailable in the wild.&lt;br&gt;&lt;/p&gt;&lt;p&gt;2) &lt;b&gt;Is&lt;/b&gt; a &lt;b&gt;subset of the rows &lt;/b&gt;(messages) available in TA4 data. &lt;br&gt;&lt;/p&gt;&lt;p&gt;&lt;span style=&quot;white-space: pre;&quot;&gt;	&lt;/span&gt;We can only generate enrichments for a very small subset of the total messages in addition to whatever synthetic data we generate and choose to enrich. Most observations in the TA4 data set(s), will have missing data for these features. It is prohibitively expensive and impossible to extract unbiased responses from enough participants to enrich beyond a couple hundred messages.&lt;/p&gt;&lt;br&gt;&lt;p&gt;&lt;br&gt;&lt;/p&gt;&lt;p&gt;&lt;br&gt; &lt;/p&gt;&lt;p&gt;&lt;br&gt;&lt;/p&gt;" style="text;html=1;strokeColor=none;fillColor=none;spacing=5;spacingTop=-20;whiteSpace=wrap;overflow=hidden;rounded=0;labelBackgroundColor=none;fontSize=12;" vertex="1" parent="1">
          <mxGeometry x="70" y="780" width="690" height="220" as="geometry" />
        </mxCell>
        <mxCell id="YOguvEMQ_99iYduZ2-tK-303" style="edgeStyle=orthogonalEdgeStyle;rounded=0;orthogonalLoop=1;jettySize=auto;html=1;entryX=1;entryY=0.5;entryDx=0;entryDy=0;fontSize=12;exitX=1;exitY=0.5;exitDx=0;exitDy=0;" edge="1" parent="1" source="YOguvEMQ_99iYduZ2-tK-59" target="YOguvEMQ_99iYduZ2-tK-288">
          <mxGeometry relative="1" as="geometry">
            <Array as="points">
              <mxPoint x="800" y="100" />
              <mxPoint x="800" y="890" />
            </Array>
          </mxGeometry>
        </mxCell>
        <mxCell id="YOguvEMQ_99iYduZ2-tK-311" style="rounded=0;orthogonalLoop=1;jettySize=auto;html=1;fontSize=12;strokeColor=default;shape=link;" edge="1" parent="1" source="YOguvEMQ_99iYduZ2-tK-223">
          <mxGeometry relative="1" as="geometry">
            <mxPoint x="800" y="340" as="targetPoint" />
          </mxGeometry>
        </mxCell>
        <mxCell id="YOguvEMQ_99iYduZ2-tK-312" style="edgeStyle=orthogonalEdgeStyle;rounded=0;orthogonalLoop=1;jettySize=auto;html=1;fontSize=12;shape=link;" edge="1" parent="1" source="YOguvEMQ_99iYduZ2-tK-231">
          <mxGeometry relative="1" as="geometry">
            <mxPoint x="800" y="380" as="targetPoint" />
          </mxGeometry>
        </mxCell>
        <mxCell id="YOguvEMQ_99iYduZ2-tK-314" style="edgeStyle=orthogonalEdgeStyle;rounded=0;orthogonalLoop=1;jettySize=auto;html=1;fontSize=12;shape=link;" edge="1" parent="1" source="YOguvEMQ_99iYduZ2-tK-176">
          <mxGeometry relative="1" as="geometry">
            <mxPoint x="800" y="609.5" as="targetPoint" />
          </mxGeometry>
        </mxCell>
        <mxCell id="YOguvEMQ_99iYduZ2-tK-316" style="edgeStyle=none;shape=link;rounded=0;orthogonalLoop=1;jettySize=auto;html=1;fontSize=12;strokeColor=default;" edge="1" parent="1" source="YOguvEMQ_99iYduZ2-tK-215">
          <mxGeometry relative="1" as="geometry">
            <mxPoint x="800" y="220" as="targetPoint" />
          </mxGeometry>
        </mxCell>
        <mxCell id="YOguvEMQ_99iYduZ2-tK-319" value="" style="endArrow=none;html=1;rounded=0;fontSize=12;strokeColor=default;" edge="1" parent="1">
          <mxGeometry width="50" height="50" relative="1" as="geometry">
            <mxPoint x="70" y="760" as="sourcePoint" />
            <mxPoint x="770" y="760" as="targetPoint" />
          </mxGeometry>
        </mxCell>
        <mxCell id="YOguvEMQ_99iYduZ2-tK-320" value="" style="endArrow=classic;html=1;rounded=0;fontSize=12;strokeColor=default;entryX=0.5;entryY=0;entryDx=0;entryDy=0;" edge="1" parent="1" target="YOguvEMQ_99iYduZ2-tK-288">
          <mxGeometry width="50" height="50" relative="1" as="geometry">
            <mxPoint x="415" y="760" as="sourcePoint" />
            <mxPoint x="440" y="730" as="targetPoint" />
          </mxGeometry>
        </mxCell>
        <mxCell id="YOguvEMQ_99iYduZ2-tK-321" value="" style="endArrow=none;html=1;rounded=0;fontSize=12;strokeColor=default;" edge="1" parent="1">
          <mxGeometry width="50" height="50" relative="1" as="geometry">
            <mxPoint x="770" y="760" as="sourcePoint" />
            <mxPoint x="770" y="740" as="targetPoint" />
          </mxGeometry>
        </mxCell>
        <mxCell id="YOguvEMQ_99iYduZ2-tK-322" value="" style="endArrow=none;html=1;rounded=0;fontSize=12;strokeColor=default;" edge="1" parent="1">
          <mxGeometry width="50" height="50" relative="1" as="geometry">
            <mxPoint x="70" y="760" as="sourcePoint" />
            <mxPoint x="70" y="740" as="targetPoint" />
          </mxGeometry>
        </mxCell>
        <mxCell id="YOguvEMQ_99iYduZ2-tK-333" style="edgeStyle=elbowEdgeStyle;rounded=0;orthogonalLoop=1;jettySize=auto;html=1;entryX=0.508;entryY=0.067;entryDx=0;entryDy=0;entryPerimeter=0;fontSize=12;strokeColor=default;" edge="1" parent="1" source="YOguvEMQ_99iYduZ2-tK-327" target="YOguvEMQ_99iYduZ2-tK-43">
          <mxGeometry relative="1" as="geometry">
            <Array as="points">
              <mxPoint x="20" y="120" />
            </Array>
          </mxGeometry>
        </mxCell>
        <mxCell id="YOguvEMQ_99iYduZ2-tK-335" style="edgeStyle=elbowEdgeStyle;rounded=0;orthogonalLoop=1;jettySize=auto;html=1;fontSize=12;strokeColor=default;" edge="1" parent="1" source="YOguvEMQ_99iYduZ2-tK-327" target="YOguvEMQ_99iYduZ2-tK-42">
          <mxGeometry relative="1" as="geometry" />
        </mxCell>
        <mxCell id="YOguvEMQ_99iYduZ2-tK-327" value="&lt;b&gt;TA4 Training and Production Data&lt;br&gt;&lt;/b&gt;" style="text;html=1;align=center;verticalAlign=middle;resizable=0;points=[];autosize=1;strokeColor=none;fillColor=none;fontSize=12;" vertex="1" parent="1">
          <mxGeometry x="175" width="220" height="30" as="geometry" />
        </mxCell>
      </root>
    </mxGraphModel>
  </diagram>
</mxfile>
